<?xml version="1.0" encoding="UTF-8" standalone="no"?>
<!DOCTYPE svg PUBLIC "-//W3C//DTD SVG 1.1//EN"
 "http://www.w3.org/Graphics/SVG/1.1/DTD/svg11.dtd">
<!-- Generated by graphviz version 5.0.0 (20220707.1540)
 -->
<!-- Title: dependencies Pages: 1 -->
<svg width="4869pt" height="247pt"
 viewBox="0.00 0.00 4869.00 246.80" xmlns="http://www.w3.org/2000/svg" xmlns:xlink="http://www.w3.org/1999/xlink">
<g id="graph0" class="graph" transform="scale(1 1) rotate(0) translate(4 242.8)">
<title>dependencies</title>
<polygon fill="white" stroke="transparent" points="-4,4 -4,-242.8 4865,-242.8 4865,4 -4,4"/>
<text text-anchor="middle" x="2430.5" y="-8.2" font-family="sans-serif" font-size="14.00">dependencies</text>
<g id="clust1" class="cluster">
<title>cluster_AppModule</title>
<polygon fill="none" stroke="black" stroke-dasharray="1,5" points="8,-32.8 8,-230.8 4853,-230.8 4853,-32.8 8,-32.8"/>
</g>
<g id="clust2" class="cluster">
<title>cluster_AppModule_declarations</title>
<polygon fill="none" stroke="black" points="314,-40.8 314,-92.8 4845,-92.8 4845,-40.8 314,-40.8"/>
</g>
<g id="clust32" class="cluster">
<title>cluster_AppModule_imports</title>
<polygon fill="none" stroke="black" points="16,-40.8 16,-92.8 306,-92.8 306,-40.8 16,-40.8"/>
</g>
<g id="clust34" class="cluster">
<title>cluster_AppModule_bootstrap</title>
<polygon fill="none" stroke="black" points="2411,-170.8 2411,-222.8 2535,-222.8 2535,-170.8 2411,-170.8"/>
</g>
<!-- AboutComponent -->
<g id="node1" class="node">
<title>AboutComponent</title>
<polygon fill="#ffffb3" stroke="black" points="4837.33,-84.8 4720.67,-84.8 4720.67,-48.8 4837.33,-48.8 4837.33,-84.8"/>
<text text-anchor="middle" x="4779" y="-62.6" font-family="Times,serif" font-size="14.00">AboutComponent</text>
</g>
<!-- AppModule -->
<g id="node30" class="node">
<title>AppModule</title>
<polygon fill="#8dd3c7" stroke="black" points="2514.66,-149.8 2511.66,-153.8 2490.66,-153.8 2487.66,-149.8 2431.34,-149.8 2431.34,-113.8 2514.66,-113.8 2514.66,-149.8"/>
<text text-anchor="middle" x="2473" y="-127.6" font-family="Times,serif" font-size="14.00">AppModule</text>
</g>
<!-- AboutComponent&#45;&gt;AppModule -->
<g id="edge1" class="edge">
<title>AboutComponent&#45;&gt;AppModule</title>
<path fill="none" stroke="black" d="M4779,-85.18C4779,-109.08 4779,-147.8 4779,-147.8 4779,-147.8 2524.99,-147.8 2524.99,-147.8"/>
<polygon fill="black" stroke="black" points="2524.99,-144.3 2514.99,-147.8 2524.99,-151.3 2524.99,-144.3"/>
</g>
<!-- AppComponent -->
<g id="node2" class="node">
<title>AppComponent</title>
<polygon fill="#ffffb3" stroke="black" points="4702.94,-84.8 4597.06,-84.8 4597.06,-48.8 4702.94,-48.8 4702.94,-84.8"/>
<text text-anchor="middle" x="4650" y="-62.6" font-family="Times,serif" font-size="14.00">AppComponent</text>
</g>
<!-- AppComponent&#45;&gt;AppModule -->
<g id="edge2" class="edge">
<title>AppComponent&#45;&gt;AppModule</title>
<path fill="none" stroke="black" d="M4650,-85.12C4650,-108.46 4650,-145.8 4650,-145.8 4650,-145.8 2525.03,-145.8 2525.03,-145.8"/>
<polygon fill="black" stroke="black" points="2525.03,-142.3 2515.03,-145.8 2525.03,-149.3 2525.03,-142.3"/>
</g>
<!-- BlindsHelpComponent -->
<g id="node3" class="node">
<title>BlindsHelpComponent</title>
<polygon fill="#ffffb3" stroke="black" points="4579.61,-84.8 4434.39,-84.8 4434.39,-48.8 4579.61,-48.8 4579.61,-84.8"/>
<text text-anchor="middle" x="4507" y="-62.6" font-family="Times,serif" font-size="14.00">BlindsHelpComponent</text>
</g>
<!-- BlindsHelpComponent&#45;&gt;AppModule -->
<g id="edge3" class="edge">
<title>BlindsHelpComponent&#45;&gt;AppModule</title>
<path fill="none" stroke="black" d="M4507,-85.05C4507,-107.82 4507,-143.8 4507,-143.8 4507,-143.8 2525.02,-143.8 2525.02,-143.8"/>
<polygon fill="black" stroke="black" points="2525.02,-140.3 2515.02,-143.8 2525.02,-147.3 2525.02,-140.3"/>
</g>
<!-- BookGymComponent -->
<g id="node4" class="node">
<title>BookGymComponent</title>
<polygon fill="#ffffb3" stroke="black" points="4416.67,-84.8 4277.33,-84.8 4277.33,-48.8 4416.67,-48.8 4416.67,-84.8"/>
<text text-anchor="middle" x="4347" y="-62.6" font-family="Times,serif" font-size="14.00">BookGymComponent</text>
</g>
<!-- BookGymComponent&#45;&gt;AppModule -->
<g id="edge4" class="edge">
<title>BookGymComponent&#45;&gt;AppModule</title>
<path fill="none" stroke="black" d="M4347,-85.09C4347,-107.01 4347,-140.8 4347,-140.8 4347,-140.8 2524.77,-140.8 2524.77,-140.8"/>
<polygon fill="black" stroke="black" points="2524.77,-137.3 2514.77,-140.8 2524.77,-144.3 2524.77,-137.3"/>
</g>
<!-- BookTrainerComponent -->
<g id="node5" class="node">
<title>BookTrainerComponent</title>
<polygon fill="#ffffb3" stroke="black" points="4259.36,-84.8 4106.64,-84.8 4106.64,-48.8 4259.36,-48.8 4259.36,-84.8"/>
<text text-anchor="middle" x="4183" y="-62.6" font-family="Times,serif" font-size="14.00">BookTrainerComponent</text>
</g>
<!-- BookTrainerComponent&#45;&gt;AppModule -->
<g id="edge5" class="edge">
<title>BookTrainerComponent&#45;&gt;AppModule</title>
<path fill="none" stroke="black" d="M4183,-84.97C4183,-106.3 4183,-138.8 4183,-138.8 4183,-138.8 2524.85,-138.8 2524.85,-138.8"/>
<polygon fill="black" stroke="black" points="2524.85,-135.3 2514.85,-138.8 2524.85,-142.3 2524.85,-135.3"/>
</g>
<!-- BookingCardComponent -->
<g id="node6" class="node">
<title>BookingCardComponent</title>
<polygon fill="#ffffb3" stroke="black" points="4088.27,-84.8 3931.73,-84.8 3931.73,-48.8 4088.27,-48.8 4088.27,-84.8"/>
<text text-anchor="middle" x="4010" y="-62.6" font-family="Times,serif" font-size="14.00">BookingCardComponent</text>
</g>
<!-- BookingCardComponent&#45;&gt;AppModule -->
<g id="edge6" class="edge">
<title>BookingCardComponent&#45;&gt;AppModule</title>
<path fill="none" stroke="black" d="M4010,-84.83C4010,-105.57 4010,-136.8 4010,-136.8 4010,-136.8 2524.91,-136.8 2524.91,-136.8"/>
<polygon fill="black" stroke="black" points="2524.91,-133.3 2514.91,-136.8 2524.91,-140.3 2524.91,-133.3"/>
</g>
<!-- ClimateHelpComponent -->
<g id="node7" class="node">
<title>ClimateHelpComponent</title>
<polygon fill="#ffffb3" stroke="black" points="3913.37,-84.8 3760.63,-84.8 3760.63,-48.8 3913.37,-48.8 3913.37,-84.8"/>
<text text-anchor="middle" x="3837" y="-62.6" font-family="Times,serif" font-size="14.00">ClimateHelpComponent</text>
</g>
<!-- ClimateHelpComponent&#45;&gt;AppModule -->
<g id="edge7" class="edge">
<title>ClimateHelpComponent&#45;&gt;AppModule</title>
<path fill="none" stroke="black" d="M3837,-85.02C3837,-105.17 3837,-134.8 3837,-134.8 3837,-134.8 2524.94,-134.8 2524.94,-134.8"/>
<polygon fill="black" stroke="black" points="2524.94,-131.3 2514.94,-134.8 2524.94,-138.3 2524.94,-131.3"/>
</g>
<!-- DoorHelpComponent -->
<g id="node8" class="node">
<title>DoorHelpComponent</title>
<polygon fill="#ffffb3" stroke="black" points="3742.82,-84.8 3605.18,-84.8 3605.18,-48.8 3742.82,-48.8 3742.82,-84.8"/>
<text text-anchor="middle" x="3674" y="-62.6" font-family="Times,serif" font-size="14.00">DoorHelpComponent</text>
</g>
<!-- DoorHelpComponent&#45;&gt;AppModule -->
<g id="edge8" class="edge">
<title>DoorHelpComponent&#45;&gt;AppModule</title>
<path fill="none" stroke="black" d="M3674,-84.91C3674,-104.14 3674,-131.8 3674,-131.8 3674,-131.8 2524.69,-131.8 2524.69,-131.8"/>
<polygon fill="black" stroke="black" points="2524.69,-128.3 2514.69,-131.8 2524.69,-135.3 2524.69,-128.3"/>
</g>
<!-- GymCardComponent -->
<g id="node9" class="node">
<title>GymCardComponent</title>
<polygon fill="#ffffb3" stroke="black" points="3587.05,-84.8 3450.95,-84.8 3450.95,-48.8 3587.05,-48.8 3587.05,-84.8"/>
<text text-anchor="middle" x="3519" y="-62.6" font-family="Times,serif" font-size="14.00">GymCardComponent</text>
</g>
<!-- GymCardComponent&#45;&gt;AppModule -->
<g id="edge9" class="edge">
<title>GymCardComponent&#45;&gt;AppModule</title>
<path fill="none" stroke="black" d="M3519,-85.02C3519,-103.63 3519,-129.8 3519,-129.8 3519,-129.8 2524.97,-129.8 2524.97,-129.8"/>
<polygon fill="black" stroke="black" points="2524.97,-126.3 2514.97,-129.8 2524.97,-133.3 2524.97,-126.3"/>
</g>
<!-- HelpComponent -->
<g id="node10" class="node">
<title>HelpComponent</title>
<polygon fill="#ffffb3" stroke="black" points="3432.05,-84.8 3323.95,-84.8 3323.95,-48.8 3432.05,-48.8 3432.05,-84.8"/>
<text text-anchor="middle" x="3378" y="-62.6" font-family="Times,serif" font-size="14.00">HelpComponent</text>
</g>
<!-- HelpComponent&#45;&gt;AppModule -->
<g id="edge10" class="edge">
<title>HelpComponent&#45;&gt;AppModule</title>
<path fill="none" stroke="black" d="M3378,-85.1C3378,-103.07 3378,-127.8 3378,-127.8 3378,-127.8 2524.83,-127.8 2524.83,-127.8"/>
<polygon fill="black" stroke="black" points="2524.84,-124.3 2514.83,-127.8 2524.83,-131.3 2524.84,-124.3"/>
</g>
<!-- HomeComponent -->
<g id="node11" class="node">
<title>HomeComponent</title>
<polygon fill="#ffffb3" stroke="black" points="3305.55,-84.8 3190.45,-84.8 3190.45,-48.8 3305.55,-48.8 3305.55,-84.8"/>
<text text-anchor="middle" x="3248" y="-62.6" font-family="Times,serif" font-size="14.00">HomeComponent</text>
</g>
<!-- HomeComponent&#45;&gt;AppModule -->
<g id="edge11" class="edge">
<title>HomeComponent&#45;&gt;AppModule</title>
<path fill="none" stroke="black" d="M3248,-84.82C3248,-102.17 3248,-125.8 3248,-125.8 3248,-125.8 2524.67,-125.8 2524.67,-125.8"/>
<polygon fill="black" stroke="black" points="2524.67,-122.3 2514.67,-125.8 2524.67,-129.3 2524.67,-122.3"/>
</g>
<!-- IconListComponent -->
<g id="node12" class="node">
<title>IconListComponent</title>
<polygon fill="#ffffb3" stroke="black" points="3171.99,-84.8 3044.01,-84.8 3044.01,-48.8 3171.99,-48.8 3171.99,-84.8"/>
<text text-anchor="middle" x="3108" y="-62.6" font-family="Times,serif" font-size="14.00">IconListComponent</text>
</g>
<!-- IconListComponent&#45;&gt;AppModule -->
<g id="edge12" class="edge">
<title>IconListComponent&#45;&gt;AppModule</title>
<path fill="none" stroke="black" d="M3108,-84.83C3108,-101.2 3108,-122.8 3108,-122.8 3108,-122.8 2524.66,-122.8 2524.66,-122.8"/>
<polygon fill="black" stroke="black" points="2524.66,-119.3 2514.66,-122.8 2524.66,-126.3 2524.66,-119.3"/>
</g>
<!-- IconListItemComponent -->
<g id="node13" class="node">
<title>IconListItemComponent</title>
<polygon fill="#ffffb3" stroke="black" points="3025.64,-84.8 2872.36,-84.8 2872.36,-48.8 3025.64,-48.8 3025.64,-84.8"/>
<text text-anchor="middle" x="2949" y="-62.6" font-family="Times,serif" font-size="14.00">IconListItemComponent</text>
</g>
<!-- IconListItemComponent&#45;&gt;AppModule -->
<g id="edge13" class="edge">
<title>IconListItemComponent&#45;&gt;AppModule</title>
<path fill="none" stroke="black" d="M2949,-85.08C2949,-100.75 2949,-120.8 2949,-120.8 2949,-120.8 2524.82,-120.8 2524.82,-120.8"/>
<polygon fill="black" stroke="black" points="2524.82,-117.3 2514.82,-120.8 2524.82,-124.3 2524.82,-117.3"/>
</g>
<!-- InfobannerComponent -->
<g id="node14" class="node">
<title>InfobannerComponent</title>
<polygon fill="#ffffb3" stroke="black" points="2854.25,-84.8 2711.75,-84.8 2711.75,-48.8 2854.25,-48.8 2854.25,-84.8"/>
<text text-anchor="middle" x="2783" y="-62.6" font-family="Times,serif" font-size="14.00">InfobannerComponent</text>
</g>
<!-- InfobannerComponent&#45;&gt;AppModule -->
<g id="edge14" class="edge">
<title>InfobannerComponent&#45;&gt;AppModule</title>
<path fill="none" stroke="black" d="M2783,-84.99C2783,-99.98 2783,-118.8 2783,-118.8 2783,-118.8 2524.81,-118.8 2524.81,-118.8"/>
<polygon fill="black" stroke="black" points="2524.81,-115.3 2514.81,-118.8 2524.81,-122.3 2524.81,-115.3"/>
</g>
<!-- LightsHelpComponent -->
<g id="node15" class="node">
<title>LightsHelpComponent</title>
<polygon fill="#ffffb3" stroke="black" points="2693.32,-84.8 2548.68,-84.8 2548.68,-48.8 2693.32,-48.8 2693.32,-84.8"/>
<text text-anchor="middle" x="2621" y="-62.6" font-family="Times,serif" font-size="14.00">LightsHelpComponent</text>
</g>
<!-- LightsHelpComponent&#45;&gt;AppModule -->
<g id="edge15" class="edge">
<title>LightsHelpComponent&#45;&gt;AppModule</title>
<path fill="none" stroke="black" d="M2621,-84.85C2621,-99.17 2621,-116.8 2621,-116.8 2621,-116.8 2525.01,-116.8 2525.01,-116.8"/>
<polygon fill="black" stroke="black" points="2525.02,-113.3 2515.01,-116.8 2525.01,-120.3 2525.02,-113.3"/>
</g>
<!-- LoginComponent -->
<g id="node16" class="node">
<title>LoginComponent</title>
<polygon fill="#ffffb3" stroke="black" points="2530.27,-84.8 2415.73,-84.8 2415.73,-48.8 2530.27,-48.8 2530.27,-84.8"/>
<text text-anchor="middle" x="2473" y="-62.6" font-family="Times,serif" font-size="14.00">LoginComponent</text>
</g>
<!-- LoginComponent&#45;&gt;AppModule -->
<g id="edge16" class="edge">
<title>LoginComponent&#45;&gt;AppModule</title>
<path fill="none" stroke="black" d="M2473,-84.91C2473,-84.91 2473,-103.79 2473,-103.79"/>
<polygon fill="black" stroke="black" points="2469.5,-103.79 2473,-113.79 2476.5,-103.79 2469.5,-103.79"/>
</g>
<!-- MatAccordionResponsiveComponent -->
<g id="node17" class="node">
<title>MatAccordionResponsiveComponent</title>
<polygon fill="#ffffb3" stroke="black" points="2397.52,-84.8 2170.48,-84.8 2170.48,-48.8 2397.52,-48.8 2397.52,-84.8"/>
<text text-anchor="middle" x="2284" y="-62.6" font-family="Times,serif" font-size="14.00">MatAccordionResponsiveComponent</text>
</g>
<!-- MatAccordionResponsiveComponent&#45;&gt;AppModule -->
<g id="edge17" class="edge">
<title>MatAccordionResponsiveComponent&#45;&gt;AppModule</title>
<path fill="none" stroke="black" d="M2284,-84.85C2284,-99.17 2284,-116.8 2284,-116.8 2284,-116.8 2421.05,-116.8 2421.05,-116.8"/>
<polygon fill="black" stroke="black" points="2421.05,-120.3 2431.05,-116.8 2421.05,-113.3 2421.05,-120.3"/>
</g>
<!-- MatSqButtonComponent -->
<g id="node18" class="node">
<title>MatSqButtonComponent</title>
<polygon fill="#ffffb3" stroke="black" points="2152.29,-84.8 1995.71,-84.8 1995.71,-48.8 2152.29,-48.8 2152.29,-84.8"/>
<text text-anchor="middle" x="2074" y="-62.6" font-family="Times,serif" font-size="14.00">MatSqButtonComponent</text>
</g>
<!-- MatSqButtonComponent&#45;&gt;AppModule -->
<g id="edge18" class="edge">
<title>MatSqButtonComponent&#45;&gt;AppModule</title>
<path fill="none" stroke="black" d="M2074,-84.99C2074,-99.98 2074,-118.8 2074,-118.8 2074,-118.8 2421.05,-118.8 2421.05,-118.8"/>
<polygon fill="black" stroke="black" points="2421.05,-122.3 2431.05,-118.8 2421.05,-115.3 2421.05,-122.3"/>
</g>
<!-- MediacontrolComponent -->
<g id="node19" class="node">
<title>MediacontrolComponent</title>
<polygon fill="#ffffb3" stroke="black" points="1977.25,-84.8 1820.75,-84.8 1820.75,-48.8 1977.25,-48.8 1977.25,-84.8"/>
<text text-anchor="middle" x="1899" y="-62.6" font-family="Times,serif" font-size="14.00">MediacontrolComponent</text>
</g>
<!-- MediacontrolComponent&#45;&gt;AppModule -->
<g id="edge19" class="edge">
<title>MediacontrolComponent&#45;&gt;AppModule</title>
<path fill="none" stroke="black" d="M1899,-85.08C1899,-100.75 1899,-120.8 1899,-120.8 1899,-120.8 2421.26,-120.8 2421.26,-120.8"/>
<polygon fill="black" stroke="black" points="2421.26,-124.3 2431.26,-120.8 2421.26,-117.3 2421.26,-124.3"/>
</g>
<!-- PageNotFoundComponent -->
<g id="node20" class="node">
<title>PageNotFoundComponent</title>
<polygon fill="#ffffb3" stroke="black" points="1802.83,-84.8 1637.17,-84.8 1637.17,-48.8 1802.83,-48.8 1802.83,-84.8"/>
<text text-anchor="middle" x="1720" y="-62.6" font-family="Times,serif" font-size="14.00">PageNotFoundComponent</text>
</g>
<!-- PageNotFoundComponent&#45;&gt;AppModule -->
<g id="edge20" class="edge">
<title>PageNotFoundComponent&#45;&gt;AppModule</title>
<path fill="none" stroke="black" d="M1720,-84.83C1720,-101.2 1720,-122.8 1720,-122.8 1720,-122.8 2421.17,-122.8 2421.17,-122.8"/>
<polygon fill="black" stroke="black" points="2421.17,-126.3 2431.17,-122.8 2421.17,-119.3 2421.17,-126.3"/>
</g>
<!-- RegisterComponent -->
<g id="node21" class="node">
<title>RegisterComponent</title>
<polygon fill="#ffffb3" stroke="black" points="1618.99,-84.8 1491.01,-84.8 1491.01,-48.8 1618.99,-48.8 1618.99,-84.8"/>
<text text-anchor="middle" x="1555" y="-62.6" font-family="Times,serif" font-size="14.00">RegisterComponent</text>
</g>
<!-- RegisterComponent&#45;&gt;AppModule -->
<g id="edge21" class="edge">
<title>RegisterComponent&#45;&gt;AppModule</title>
<path fill="none" stroke="black" d="M1555,-84.82C1555,-102.17 1555,-125.8 1555,-125.8 1555,-125.8 2421.17,-125.8 2421.17,-125.8"/>
<polygon fill="black" stroke="black" points="2421.17,-129.3 2431.17,-125.8 2421.17,-122.3 2421.17,-129.3"/>
</g>
<!-- RoomComponent -->
<g id="node22" class="node">
<title>RoomComponent</title>
<polygon fill="#ffffb3" stroke="black" points="1472.56,-84.8 1357.44,-84.8 1357.44,-48.8 1472.56,-48.8 1472.56,-84.8"/>
<text text-anchor="middle" x="1415" y="-62.6" font-family="Times,serif" font-size="14.00">RoomComponent</text>
</g>
<!-- RoomComponent&#45;&gt;AppModule -->
<g id="edge22" class="edge">
<title>RoomComponent&#45;&gt;AppModule</title>
<path fill="none" stroke="black" d="M1415,-85.1C1415,-103.07 1415,-127.8 1415,-127.8 1415,-127.8 2421.2,-127.8 2421.2,-127.8"/>
<polygon fill="black" stroke="black" points="2421.2,-131.3 2431.2,-127.8 2421.2,-124.3 2421.2,-131.3"/>
</g>
<!-- SocialComponent -->
<g id="node23" class="node">
<title>SocialComponent</title>
<polygon fill="#ffffb3" stroke="black" points="1339.32,-84.8 1222.68,-84.8 1222.68,-48.8 1339.32,-48.8 1339.32,-84.8"/>
<text text-anchor="middle" x="1281" y="-62.6" font-family="Times,serif" font-size="14.00">SocialComponent</text>
</g>
<!-- SocialComponent&#45;&gt;AppModule -->
<g id="edge23" class="edge">
<title>SocialComponent&#45;&gt;AppModule</title>
<path fill="none" stroke="black" d="M1281,-85.02C1281,-103.63 1281,-129.8 1281,-129.8 1281,-129.8 2421.28,-129.8 2421.28,-129.8"/>
<polygon fill="black" stroke="black" points="2421.28,-133.3 2431.28,-129.8 2421.27,-126.3 2421.28,-133.3"/>
</g>
<!-- TaskComponent -->
<g id="node24" class="node">
<title>TaskComponent</title>
<polygon fill="#ffffb3" stroke="black" points="1205.05,-84.8 1096.95,-84.8 1096.95,-48.8 1205.05,-48.8 1205.05,-84.8"/>
<text text-anchor="middle" x="1151" y="-62.6" font-family="Times,serif" font-size="14.00">TaskComponent</text>
</g>
<!-- TaskComponent&#45;&gt;AppModule -->
<g id="edge24" class="edge">
<title>TaskComponent&#45;&gt;AppModule</title>
<path fill="none" stroke="black" d="M1151,-84.91C1151,-104.14 1151,-131.8 1151,-131.8 1151,-131.8 2421.25,-131.8 2421.25,-131.8"/>
<polygon fill="black" stroke="black" points="2421.25,-135.3 2431.25,-131.8 2421.25,-128.3 2421.25,-135.3"/>
</g>
<!-- TaskListComponent -->
<g id="node25" class="node">
<title>TaskListComponent</title>
<polygon fill="#ffffb3" stroke="black" points="1079.32,-84.8 948.68,-84.8 948.68,-48.8 1079.32,-48.8 1079.32,-84.8"/>
<text text-anchor="middle" x="1014" y="-62.6" font-family="Times,serif" font-size="14.00">TaskListComponent</text>
</g>
<!-- TaskListComponent&#45;&gt;AppModule -->
<g id="edge25" class="edge">
<title>TaskListComponent&#45;&gt;AppModule</title>
<path fill="none" stroke="black" d="M1014,-85.02C1014,-105.17 1014,-134.8 1014,-134.8 1014,-134.8 2421.3,-134.8 2421.3,-134.8"/>
<polygon fill="black" stroke="black" points="2421.3,-138.3 2431.3,-134.8 2421.3,-131.3 2421.3,-138.3"/>
</g>
<!-- TrainerCardComponent -->
<g id="node26" class="node">
<title>TrainerCardComponent</title>
<polygon fill="#ffffb3" stroke="black" points="930.74,-84.8 781.26,-84.8 781.26,-48.8 930.74,-48.8 930.74,-84.8"/>
<text text-anchor="middle" x="856" y="-62.6" font-family="Times,serif" font-size="14.00">TrainerCardComponent</text>
</g>
<!-- TrainerCardComponent&#45;&gt;AppModule -->
<g id="edge26" class="edge">
<title>TrainerCardComponent&#45;&gt;AppModule</title>
<path fill="none" stroke="black" d="M856,-84.83C856,-105.57 856,-136.8 856,-136.8 856,-136.8 2420.99,-136.8 2420.99,-136.8"/>
<polygon fill="black" stroke="black" points="2420.99,-140.3 2430.99,-136.8 2420.99,-133.3 2420.99,-140.3"/>
</g>
<!-- UserComponent -->
<g id="node27" class="node">
<title>UserComponent</title>
<polygon fill="#ffffb3" stroke="black" points="762.77,-84.8 655.23,-84.8 655.23,-48.8 762.77,-48.8 762.77,-84.8"/>
<text text-anchor="middle" x="709" y="-62.6" font-family="Times,serif" font-size="14.00">UserComponent</text>
</g>
<!-- UserComponent&#45;&gt;AppModule -->
<g id="edge27" class="edge">
<title>UserComponent&#45;&gt;AppModule</title>
<path fill="none" stroke="black" d="M709,-84.97C709,-106.3 709,-138.8 709,-138.8 709,-138.8 2421.14,-138.8 2421.14,-138.8"/>
<polygon fill="black" stroke="black" points="2421.14,-142.3 2431.14,-138.8 2421.14,-135.3 2421.14,-142.3"/>
</g>
<!-- WelcomeComponent -->
<g id="node28" class="node">
<title>WelcomeComponent</title>
<polygon fill="#ffffb3" stroke="black" points="637.47,-84.8 502.53,-84.8 502.53,-48.8 637.47,-48.8 637.47,-84.8"/>
<text text-anchor="middle" x="570" y="-62.6" font-family="Times,serif" font-size="14.00">WelcomeComponent</text>
</g>
<!-- WelcomeComponent&#45;&gt;AppModule -->
<g id="edge28" class="edge">
<title>WelcomeComponent&#45;&gt;AppModule</title>
<path fill="none" stroke="black" d="M570,-85.09C570,-107.01 570,-140.8 570,-140.8 570,-140.8 2421.04,-140.8 2421.04,-140.8"/>
<polygon fill="black" stroke="black" points="2421.04,-144.3 2431.04,-140.8 2421.04,-137.3 2421.04,-144.3"/>
</g>
<!-- WorkoutToolsComponent -->
<g id="node29" class="node">
<title>WorkoutToolsComponent</title>
<polygon fill="#ffffb3" stroke="black" points="484.49,-84.8 321.51,-84.8 321.51,-48.8 484.49,-48.8 484.49,-84.8"/>
<text text-anchor="middle" x="403" y="-62.6" font-family="Times,serif" font-size="14.00">WorkoutToolsComponent</text>
</g>
<!-- WorkoutToolsComponent&#45;&gt;AppModule -->
<g id="edge29" class="edge">
<title>WorkoutToolsComponent&#45;&gt;AppModule</title>
<path fill="none" stroke="black" d="M403,-85.05C403,-107.82 403,-143.8 403,-143.8 403,-143.8 2421.18,-143.8 2421.18,-143.8"/>
<polygon fill="black" stroke="black" points="2421.18,-147.3 2431.18,-143.8 2421.18,-140.3 2421.18,-147.3"/>
</g>
<!-- AppComponent  -->
<g id="node33" class="node">
<title>AppComponent </title>
<polygon fill="#80b1d3" stroke="black" points="2527.44,-214.8 2418.56,-214.8 2418.56,-178.8 2527.44,-178.8 2527.44,-214.8"/>
<text text-anchor="middle" x="2473" y="-192.6" font-family="Times,serif" font-size="14.00">AppComponent </text>
</g>
<!-- AppModule&#45;&gt;AppComponent  -->
<g id="edge32" class="edge">
<title>AppModule&#45;&gt;AppComponent </title>
<path fill="none" stroke="black" stroke-dasharray="1,5" d="M2473,-149.91C2473,-149.91 2473,-168.79 2473,-168.79"/>
<polygon fill="black" stroke="black" points="2469.5,-168.79 2473,-178.79 2476.5,-168.79 2469.5,-168.79"/>
</g>
<!-- AppRoutingModule -->
<g id="node31" class="node">
<title>AppRoutingModule</title>
<polygon fill="#8dd3c7" stroke="black" points="298.28,-84.8 295.28,-88.8 274.28,-88.8 271.28,-84.8 169.72,-84.8 169.72,-48.8 298.28,-48.8 298.28,-84.8"/>
<text text-anchor="middle" x="234" y="-62.6" font-family="Times,serif" font-size="14.00">AppRoutingModule</text>
</g>
<!-- AppRoutingModule&#45;&gt;AppModule -->
<g id="edge30" class="edge">
<title>AppRoutingModule&#45;&gt;AppModule</title>
<path fill="none" stroke="black" d="M234,-85.12C234,-108.46 234,-145.8 234,-145.8 234,-145.8 2421.25,-145.8 2421.25,-145.8"/>
<polygon fill="black" stroke="black" points="2421.25,-149.3 2431.25,-145.8 2421.25,-142.3 2421.25,-149.3"/>
</g>
<!-- NgOptimizedImage -->
<g id="node32" class="node">
<title>NgOptimizedImage</title>
<polygon fill="#8dd3c7" stroke="black" points="151.69,-84.8 148.69,-88.8 127.69,-88.8 124.69,-84.8 24.31,-84.8 24.31,-48.8 151.69,-48.8 151.69,-84.8"/>
<text text-anchor="middle" x="88" y="-62.6" font-family="Times,serif" font-size="14.00">NgOptimizedImage</text>
</g>
<!-- NgOptimizedImage&#45;&gt;AppModule -->
<g id="edge31" class="edge">
<title>NgOptimizedImage&#45;&gt;AppModule</title>
<path fill="none" stroke="black" d="M88,-85.18C88,-109.08 88,-147.8 88,-147.8 88,-147.8 2421.1,-147.8 2421.1,-147.8"/>
<polygon fill="black" stroke="black" points="2421.1,-151.3 2431.1,-147.8 2421.1,-144.3 2421.1,-151.3"/>
</g>
</g>
</svg>
