<?xml version="1.0" encoding="UTF-8" standalone="no"?>
<!DOCTYPE svg PUBLIC "-//W3C//DTD SVG 1.1//EN"
 "http://www.w3.org/Graphics/SVG/1.1/DTD/svg11.dtd">
<!-- Generated by graphviz version 5.0.0 (20220707.1540)
 -->
<!-- Title: dependencies Pages: 1 -->
<svg width="4701pt" height="247pt"
 viewBox="0.00 0.00 4701.00 246.80" xmlns="http://www.w3.org/2000/svg" xmlns:xlink="http://www.w3.org/1999/xlink">
<g id="graph0" class="graph" transform="scale(1 1) rotate(0) translate(4 242.8)">
<title>dependencies</title>
<polygon fill="white" stroke="transparent" points="-4,4 -4,-242.8 4697,-242.8 4697,4 -4,4"/>
<text text-anchor="middle" x="2346.5" y="-8.2" font-family="sans-serif" font-size="14.00">dependencies</text>
<g id="clust1" class="cluster">
<title>cluster_AppModule</title>
<polygon fill="none" stroke="black" stroke-dasharray="1,5" points="8,-32.8 8,-230.8 4685,-230.8 4685,-32.8 8,-32.8"/>
</g>
<g id="clust31" class="cluster">
<title>cluster_AppModule_imports</title>
<polygon fill="none" stroke="black" points="4387,-40.8 4387,-92.8 4677,-92.8 4677,-40.8 4387,-40.8"/>
</g>
<g id="clust33" class="cluster">
<title>cluster_AppModule_bootstrap</title>
<polygon fill="none" stroke="black" points="2338,-170.8 2338,-222.8 2462,-222.8 2462,-170.8 2338,-170.8"/>
</g>
<g id="clust2" class="cluster">
<title>cluster_AppModule_declarations</title>
<polygon fill="none" stroke="black" points="16,-40.8 16,-92.8 4379,-92.8 4379,-40.8 16,-40.8"/>
</g>
<!-- AboutComponent -->
<g id="node1" class="node">
<title>AboutComponent</title>
<polygon fill="#ffffb3" stroke="black" points="4371.33,-84.8 4254.67,-84.8 4254.67,-48.8 4371.33,-48.8 4371.33,-84.8"/>
<text text-anchor="middle" x="4313" y="-62.6" font-family="Times,serif" font-size="14.00">AboutComponent</text>
</g>
<!-- AppModule -->
<g id="node29" class="node">
<title>AppModule</title>
<polygon fill="#8dd3c7" stroke="black" points="2441.66,-149.8 2438.66,-153.8 2417.66,-153.8 2414.66,-149.8 2358.34,-149.8 2358.34,-113.8 2441.66,-113.8 2441.66,-149.8"/>
<text text-anchor="middle" x="2400" y="-127.6" font-family="Times,serif" font-size="14.00">AppModule</text>
</g>
<!-- AboutComponent&#45;&gt;AppModule -->
<g id="edge1" class="edge">
<title>AboutComponent&#45;&gt;AppModule</title>
<path fill="none" stroke="black" d="M4313,-84.81C4313,-107.29 4313,-142.8 4313,-142.8 4313,-142.8 2451.73,-142.8 2451.73,-142.8"/>
<polygon fill="black" stroke="black" points="2451.73,-139.3 2441.73,-142.8 2451.73,-146.3 2451.73,-139.3"/>
</g>
<!-- AppComponent -->
<g id="node2" class="node">
<title>AppComponent</title>
<polygon fill="#ffffb3" stroke="black" points="4236.94,-84.8 4131.06,-84.8 4131.06,-48.8 4236.94,-48.8 4236.94,-84.8"/>
<text text-anchor="middle" x="4184" y="-62.6" font-family="Times,serif" font-size="14.00">AppComponent</text>
</g>
<!-- AppComponent&#45;&gt;AppModule -->
<g id="edge2" class="edge">
<title>AppComponent&#45;&gt;AppModule</title>
<path fill="none" stroke="black" d="M4184,-85.09C4184,-107.01 4184,-140.8 4184,-140.8 4184,-140.8 2451.9,-140.8 2451.9,-140.8"/>
<polygon fill="black" stroke="black" points="2451.9,-137.3 2441.9,-140.8 2451.9,-144.3 2451.9,-137.3"/>
</g>
<!-- BlindsHelpComponent -->
<g id="node3" class="node">
<title>BlindsHelpComponent</title>
<polygon fill="#ffffb3" stroke="black" points="4113.61,-84.8 3968.39,-84.8 3968.39,-48.8 4113.61,-48.8 4113.61,-84.8"/>
<text text-anchor="middle" x="4041" y="-62.6" font-family="Times,serif" font-size="14.00">BlindsHelpComponent</text>
</g>
<!-- BlindsHelpComponent&#45;&gt;AppModule -->
<g id="edge3" class="edge">
<title>BlindsHelpComponent&#45;&gt;AppModule</title>
<path fill="none" stroke="black" d="M4041,-85.08C4041,-106.12 4041,-137.8 4041,-137.8 4041,-137.8 2451.8,-137.8 2451.8,-137.8"/>
<polygon fill="black" stroke="black" points="2451.8,-134.3 2441.8,-137.8 2451.8,-141.3 2451.8,-134.3"/>
</g>
<!-- BookGymComponent -->
<g id="node4" class="node">
<title>BookGymComponent</title>
<polygon fill="#ffffb3" stroke="black" points="3950.67,-84.8 3811.33,-84.8 3811.33,-48.8 3950.67,-48.8 3950.67,-84.8"/>
<text text-anchor="middle" x="3881" y="-62.6" font-family="Times,serif" font-size="14.00">BookGymComponent</text>
</g>
<!-- BookGymComponent&#45;&gt;AppModule -->
<g id="edge4" class="edge">
<title>BookGymComponent&#45;&gt;AppModule</title>
<path fill="none" stroke="black" d="M3881,-84.93C3881,-105.37 3881,-135.8 3881,-135.8 3881,-135.8 2451.94,-135.8 2451.94,-135.8"/>
<polygon fill="black" stroke="black" points="2451.94,-132.3 2441.94,-135.8 2451.94,-139.3 2451.94,-132.3"/>
</g>
<!-- BookTrainerComponent -->
<g id="node5" class="node">
<title>BookTrainerComponent</title>
<polygon fill="#ffffb3" stroke="black" points="3793.36,-84.8 3640.64,-84.8 3640.64,-48.8 3793.36,-48.8 3793.36,-84.8"/>
<text text-anchor="middle" x="3717" y="-62.6" font-family="Times,serif" font-size="14.00">BookTrainerComponent</text>
</g>
<!-- BookTrainerComponent&#45;&gt;AppModule -->
<g id="edge5" class="edge">
<title>BookTrainerComponent&#45;&gt;AppModule</title>
<path fill="none" stroke="black" d="M3717,-85.11C3717,-104.95 3717,-133.8 3717,-133.8 3717,-133.8 2451.96,-133.8 2451.96,-133.8"/>
<polygon fill="black" stroke="black" points="2451.96,-130.3 2441.96,-133.8 2451.96,-137.3 2451.96,-130.3"/>
</g>
<!-- BookingCardComponent -->
<g id="node6" class="node">
<title>BookingCardComponent</title>
<polygon fill="#ffffb3" stroke="black" points="3622.27,-84.8 3465.73,-84.8 3465.73,-48.8 3622.27,-48.8 3622.27,-84.8"/>
<text text-anchor="middle" x="3544" y="-62.6" font-family="Times,serif" font-size="14.00">BookingCardComponent</text>
</g>
<!-- BookingCardComponent&#45;&gt;AppModule -->
<g id="edge6" class="edge">
<title>BookingCardComponent&#45;&gt;AppModule</title>
<path fill="none" stroke="black" d="M3544,-84.97C3544,-103.89 3544,-130.8 3544,-130.8 3544,-130.8 2451.73,-130.8 2451.73,-130.8"/>
<polygon fill="black" stroke="black" points="2451.73,-127.3 2441.73,-130.8 2451.73,-134.3 2451.73,-127.3"/>
</g>
<!-- ClimateHelpComponent -->
<g id="node7" class="node">
<title>ClimateHelpComponent</title>
<polygon fill="#ffffb3" stroke="black" points="3447.37,-84.8 3294.63,-84.8 3294.63,-48.8 3447.37,-48.8 3447.37,-84.8"/>
<text text-anchor="middle" x="3371" y="-62.6" font-family="Times,serif" font-size="14.00">ClimateHelpComponent</text>
</g>
<!-- ClimateHelpComponent&#45;&gt;AppModule -->
<g id="edge7" class="edge">
<title>ClimateHelpComponent&#45;&gt;AppModule</title>
<path fill="none" stroke="black" d="M3371,-85.07C3371,-103.36 3371,-128.8 3371,-128.8 3371,-128.8 2451.72,-128.8 2451.72,-128.8"/>
<polygon fill="black" stroke="black" points="2451.72,-125.3 2441.72,-128.8 2451.72,-132.3 2451.72,-125.3"/>
</g>
<!-- DoorHelpComponent -->
<g id="node8" class="node">
<title>DoorHelpComponent</title>
<polygon fill="#ffffb3" stroke="black" points="3276.82,-84.8 3139.18,-84.8 3139.18,-48.8 3276.82,-48.8 3276.82,-84.8"/>
<text text-anchor="middle" x="3208" y="-62.6" font-family="Times,serif" font-size="14.00">DoorHelpComponent</text>
</g>
<!-- DoorHelpComponent&#45;&gt;AppModule -->
<g id="edge8" class="edge">
<title>DoorHelpComponent&#45;&gt;AppModule</title>
<path fill="none" stroke="black" d="M3208,-84.82C3208,-102.17 3208,-125.8 3208,-125.8 3208,-125.8 2451.74,-125.8 2451.74,-125.8"/>
<polygon fill="black" stroke="black" points="2451.74,-122.3 2441.74,-125.8 2451.74,-129.3 2451.74,-122.3"/>
</g>
<!-- GymCardComponent -->
<g id="node9" class="node">
<title>GymCardComponent</title>
<polygon fill="#ffffb3" stroke="black" points="3121.05,-84.8 2984.95,-84.8 2984.95,-48.8 3121.05,-48.8 3121.05,-84.8"/>
<text text-anchor="middle" x="3053" y="-62.6" font-family="Times,serif" font-size="14.00">GymCardComponent</text>
</g>
<!-- GymCardComponent&#45;&gt;AppModule -->
<g id="edge9" class="edge">
<title>GymCardComponent&#45;&gt;AppModule</title>
<path fill="none" stroke="black" d="M3053,-84.84C3053,-101.53 3053,-123.8 3053,-123.8 3053,-123.8 2451.84,-123.8 2451.84,-123.8"/>
<polygon fill="black" stroke="black" points="2451.84,-120.3 2441.84,-123.8 2451.84,-127.3 2451.84,-120.3"/>
</g>
<!-- HelpComponent -->
<g id="node10" class="node">
<title>HelpComponent</title>
<polygon fill="#ffffb3" stroke="black" points="2966.05,-84.8 2857.95,-84.8 2857.95,-48.8 2966.05,-48.8 2966.05,-84.8"/>
<text text-anchor="middle" x="2912" y="-62.6" font-family="Times,serif" font-size="14.00">HelpComponent</text>
</g>
<!-- HelpComponent&#45;&gt;AppModule -->
<g id="edge10" class="edge">
<title>HelpComponent&#45;&gt;AppModule</title>
<path fill="none" stroke="black" d="M2912,-84.81C2912,-100.85 2912,-121.8 2912,-121.8 2912,-121.8 2451.9,-121.8 2451.9,-121.8"/>
<polygon fill="black" stroke="black" points="2451.9,-118.3 2441.9,-121.8 2451.9,-125.3 2451.9,-118.3"/>
</g>
<!-- HomeComponent -->
<g id="node11" class="node">
<title>HomeComponent</title>
<polygon fill="#ffffb3" stroke="black" points="2839.55,-84.8 2724.45,-84.8 2724.45,-48.8 2839.55,-48.8 2839.55,-84.8"/>
<text text-anchor="middle" x="2782" y="-62.6" font-family="Times,serif" font-size="14.00">HomeComponent</text>
</g>
<!-- HomeComponent&#45;&gt;AppModule -->
<g id="edge11" class="edge">
<title>HomeComponent&#45;&gt;AppModule</title>
<path fill="none" stroke="black" d="M2782,-84.99C2782,-99.98 2782,-118.8 2782,-118.8 2782,-118.8 2451.97,-118.8 2451.97,-118.8"/>
<polygon fill="black" stroke="black" points="2451.97,-115.3 2441.97,-118.8 2451.97,-122.3 2451.97,-115.3"/>
</g>
<!-- IconListComponent -->
<g id="node12" class="node">
<title>IconListComponent</title>
<polygon fill="#ffffb3" stroke="black" points="2705.99,-84.8 2578.01,-84.8 2578.01,-48.8 2705.99,-48.8 2705.99,-84.8"/>
<text text-anchor="middle" x="2642" y="-62.6" font-family="Times,serif" font-size="14.00">IconListComponent</text>
</g>
<!-- IconListComponent&#45;&gt;AppModule -->
<g id="edge12" class="edge">
<title>IconListComponent&#45;&gt;AppModule</title>
<path fill="none" stroke="black" d="M2642,-84.85C2642,-99.17 2642,-116.8 2642,-116.8 2642,-116.8 2451.88,-116.8 2451.88,-116.8"/>
<polygon fill="black" stroke="black" points="2451.88,-113.3 2441.88,-116.8 2451.88,-120.3 2451.88,-113.3"/>
</g>
<!-- IconListItemComponent -->
<g id="node13" class="node">
<title>IconListItemComponent</title>
<polygon fill="#ffffb3" stroke="black" points="2559.64,-84.8 2406.36,-84.8 2406.36,-48.8 2559.64,-48.8 2559.64,-84.8"/>
<text text-anchor="middle" x="2483" y="-62.6" font-family="Times,serif" font-size="14.00">IconListItemComponent</text>
</g>
<!-- IconListItemComponent&#45;&gt;AppModule -->
<g id="edge13" class="edge">
<title>IconListItemComponent&#45;&gt;AppModule</title>
<path fill="none" stroke="black" d="M2424.01,-84.91C2424.01,-84.91 2424.01,-103.79 2424.01,-103.79"/>
<polygon fill="black" stroke="black" points="2420.51,-103.79 2424.01,-113.79 2427.51,-103.79 2420.51,-103.79"/>
</g>
<!-- InfobannerComponent -->
<g id="node14" class="node">
<title>InfobannerComponent</title>
<polygon fill="#ffffb3" stroke="black" points="2388.25,-84.8 2245.75,-84.8 2245.75,-48.8 2388.25,-48.8 2388.25,-84.8"/>
<text text-anchor="middle" x="2317" y="-62.6" font-family="Times,serif" font-size="14.00">InfobannerComponent</text>
</g>
<!-- InfobannerComponent&#45;&gt;AppModule -->
<g id="edge14" class="edge">
<title>InfobannerComponent&#45;&gt;AppModule</title>
<path fill="none" stroke="black" d="M2373.27,-84.91C2373.27,-84.91 2373.27,-103.79 2373.27,-103.79"/>
<polygon fill="black" stroke="black" points="2369.77,-103.79 2373.27,-113.79 2376.77,-103.79 2369.77,-103.79"/>
</g>
<!-- LightsHelpComponent -->
<g id="node15" class="node">
<title>LightsHelpComponent</title>
<polygon fill="#ffffb3" stroke="black" points="2227.32,-84.8 2082.68,-84.8 2082.68,-48.8 2227.32,-48.8 2227.32,-84.8"/>
<text text-anchor="middle" x="2155" y="-62.6" font-family="Times,serif" font-size="14.00">LightsHelpComponent</text>
</g>
<!-- LightsHelpComponent&#45;&gt;AppModule -->
<g id="edge15" class="edge">
<title>LightsHelpComponent&#45;&gt;AppModule</title>
<path fill="none" stroke="black" d="M2155,-84.85C2155,-99.17 2155,-116.8 2155,-116.8 2155,-116.8 2348.16,-116.8 2348.16,-116.8"/>
<polygon fill="black" stroke="black" points="2348.16,-120.3 2358.16,-116.8 2348.16,-113.3 2348.16,-120.3"/>
</g>
<!-- LoginComponent -->
<g id="node16" class="node">
<title>LoginComponent</title>
<polygon fill="#ffffb3" stroke="black" points="2064.27,-84.8 1949.73,-84.8 1949.73,-48.8 2064.27,-48.8 2064.27,-84.8"/>
<text text-anchor="middle" x="2007" y="-62.6" font-family="Times,serif" font-size="14.00">LoginComponent</text>
</g>
<!-- LoginComponent&#45;&gt;AppModule -->
<g id="edge16" class="edge">
<title>LoginComponent&#45;&gt;AppModule</title>
<path fill="none" stroke="black" d="M2007,-84.99C2007,-99.98 2007,-118.8 2007,-118.8 2007,-118.8 2348.31,-118.8 2348.31,-118.8"/>
<polygon fill="black" stroke="black" points="2348.31,-122.3 2358.31,-118.8 2348.31,-115.3 2348.31,-122.3"/>
</g>
<!-- MatAccordionResponsiveComponent -->
<g id="node17" class="node">
<title>MatAccordionResponsiveComponent</title>
<polygon fill="#ffffb3" stroke="black" points="1931.52,-84.8 1704.48,-84.8 1704.48,-48.8 1931.52,-48.8 1931.52,-84.8"/>
<text text-anchor="middle" x="1818" y="-62.6" font-family="Times,serif" font-size="14.00">MatAccordionResponsiveComponent</text>
</g>
<!-- MatAccordionResponsiveComponent&#45;&gt;AppModule -->
<g id="edge17" class="edge">
<title>MatAccordionResponsiveComponent&#45;&gt;AppModule</title>
<path fill="none" stroke="black" d="M1818,-84.81C1818,-100.85 1818,-121.8 1818,-121.8 1818,-121.8 2348.14,-121.8 2348.14,-121.8"/>
<polygon fill="black" stroke="black" points="2348.14,-125.3 2358.14,-121.8 2348.14,-118.3 2348.14,-125.3"/>
</g>
<!-- MatSqButtonComponent -->
<g id="node18" class="node">
<title>MatSqButtonComponent</title>
<polygon fill="#ffffb3" stroke="black" points="1686.29,-84.8 1529.71,-84.8 1529.71,-48.8 1686.29,-48.8 1686.29,-84.8"/>
<text text-anchor="middle" x="1608" y="-62.6" font-family="Times,serif" font-size="14.00">MatSqButtonComponent</text>
</g>
<!-- MatSqButtonComponent&#45;&gt;AppModule -->
<g id="edge18" class="edge">
<title>MatSqButtonComponent&#45;&gt;AppModule</title>
<path fill="none" stroke="black" d="M1608,-84.84C1608,-101.53 1608,-123.8 1608,-123.8 1608,-123.8 2348.26,-123.8 2348.26,-123.8"/>
<polygon fill="black" stroke="black" points="2348.26,-127.3 2358.26,-123.8 2348.26,-120.3 2348.26,-127.3"/>
</g>
<!-- MediacontrolComponent -->
<g id="node19" class="node">
<title>MediacontrolComponent</title>
<polygon fill="#ffffb3" stroke="black" points="1511.25,-84.8 1354.75,-84.8 1354.75,-48.8 1511.25,-48.8 1511.25,-84.8"/>
<text text-anchor="middle" x="1433" y="-62.6" font-family="Times,serif" font-size="14.00">MediacontrolComponent</text>
</g>
<!-- MediacontrolComponent&#45;&gt;AppModule -->
<g id="edge19" class="edge">
<title>MediacontrolComponent&#45;&gt;AppModule</title>
<path fill="none" stroke="black" d="M1433,-84.82C1433,-102.17 1433,-125.8 1433,-125.8 1433,-125.8 2348.14,-125.8 2348.14,-125.8"/>
<polygon fill="black" stroke="black" points="2348.14,-129.3 2358.14,-125.8 2348.14,-122.3 2348.14,-129.3"/>
</g>
<!-- PageNotFoundComponent -->
<g id="node20" class="node">
<title>PageNotFoundComponent</title>
<polygon fill="#ffffb3" stroke="black" points="1336.83,-84.8 1171.17,-84.8 1171.17,-48.8 1336.83,-48.8 1336.83,-84.8"/>
<text text-anchor="middle" x="1254" y="-62.6" font-family="Times,serif" font-size="14.00">PageNotFoundComponent</text>
</g>
<!-- PageNotFoundComponent&#45;&gt;AppModule -->
<g id="edge20" class="edge">
<title>PageNotFoundComponent&#45;&gt;AppModule</title>
<path fill="none" stroke="black" d="M1254,-85.07C1254,-103.36 1254,-128.8 1254,-128.8 1254,-128.8 2348.2,-128.8 2348.2,-128.8"/>
<polygon fill="black" stroke="black" points="2348.2,-132.3 2358.2,-128.8 2348.2,-125.3 2348.2,-132.3"/>
</g>
<!-- RegisterComponent -->
<g id="node21" class="node">
<title>RegisterComponent</title>
<polygon fill="#ffffb3" stroke="black" points="1152.99,-84.8 1025.01,-84.8 1025.01,-48.8 1152.99,-48.8 1152.99,-84.8"/>
<text text-anchor="middle" x="1089" y="-62.6" font-family="Times,serif" font-size="14.00">RegisterComponent</text>
</g>
<!-- RegisterComponent&#45;&gt;AppModule -->
<g id="edge21" class="edge">
<title>RegisterComponent&#45;&gt;AppModule</title>
<path fill="none" stroke="black" d="M1089,-84.97C1089,-103.89 1089,-130.8 1089,-130.8 1089,-130.8 2348.23,-130.8 2348.23,-130.8"/>
<polygon fill="black" stroke="black" points="2348.23,-134.3 2358.23,-130.8 2348.23,-127.3 2348.23,-134.3"/>
</g>
<!-- RoomComponent -->
<g id="node22" class="node">
<title>RoomComponent</title>
<polygon fill="#ffffb3" stroke="black" points="1006.56,-84.8 891.44,-84.8 891.44,-48.8 1006.56,-48.8 1006.56,-84.8"/>
<text text-anchor="middle" x="949" y="-62.6" font-family="Times,serif" font-size="14.00">RoomComponent</text>
</g>
<!-- RoomComponent&#45;&gt;AppModule -->
<g id="edge22" class="edge">
<title>RoomComponent&#45;&gt;AppModule</title>
<path fill="none" stroke="black" d="M949,-85.11C949,-104.95 949,-133.8 949,-133.8 949,-133.8 2348.14,-133.8 2348.14,-133.8"/>
<polygon fill="black" stroke="black" points="2348.14,-137.3 2358.14,-133.8 2348.14,-130.3 2348.14,-137.3"/>
</g>
<!-- SocialComponent -->
<g id="node23" class="node">
<title>SocialComponent</title>
<polygon fill="#ffffb3" stroke="black" points="873.32,-84.8 756.68,-84.8 756.68,-48.8 873.32,-48.8 873.32,-84.8"/>
<text text-anchor="middle" x="815" y="-62.6" font-family="Times,serif" font-size="14.00">SocialComponent</text>
</g>
<!-- SocialComponent&#45;&gt;AppModule -->
<g id="edge23" class="edge">
<title>SocialComponent&#45;&gt;AppModule</title>
<path fill="none" stroke="black" d="M815,-84.93C815,-105.37 815,-135.8 815,-135.8 815,-135.8 2348.01,-135.8 2348.01,-135.8"/>
<polygon fill="black" stroke="black" points="2348.01,-139.3 2358.01,-135.8 2348.01,-132.3 2348.01,-139.3"/>
</g>
<!-- TaskComponent -->
<g id="node24" class="node">
<title>TaskComponent</title>
<polygon fill="#ffffb3" stroke="black" points="739.05,-84.8 630.95,-84.8 630.95,-48.8 739.05,-48.8 739.05,-84.8"/>
<text text-anchor="middle" x="685" y="-62.6" font-family="Times,serif" font-size="14.00">TaskComponent</text>
</g>
<!-- TaskComponent&#45;&gt;AppModule -->
<g id="edge24" class="edge">
<title>TaskComponent&#45;&gt;AppModule</title>
<path fill="none" stroke="black" d="M685,-85.08C685,-106.12 685,-137.8 685,-137.8 685,-137.8 2348.03,-137.8 2348.03,-137.8"/>
<polygon fill="black" stroke="black" points="2348.03,-141.3 2358.03,-137.8 2348.03,-134.3 2348.03,-141.3"/>
</g>
<!-- TaskListComponent -->
<g id="node25" class="node">
<title>TaskListComponent</title>
<polygon fill="#ffffb3" stroke="black" points="613.32,-84.8 482.68,-84.8 482.68,-48.8 613.32,-48.8 613.32,-84.8"/>
<text text-anchor="middle" x="548" y="-62.6" font-family="Times,serif" font-size="14.00">TaskListComponent</text>
</g>
<!-- TaskListComponent&#45;&gt;AppModule -->
<g id="edge25" class="edge">
<title>TaskListComponent&#45;&gt;AppModule</title>
<path fill="none" stroke="black" d="M548,-85.09C548,-107.01 548,-140.8 548,-140.8 548,-140.8 2348.28,-140.8 2348.28,-140.8"/>
<polygon fill="black" stroke="black" points="2348.28,-144.3 2358.28,-140.8 2348.28,-137.3 2348.28,-144.3"/>
</g>
<!-- UserComponent -->
<g id="node26" class="node">
<title>UserComponent</title>
<polygon fill="#ffffb3" stroke="black" points="464.77,-84.8 357.23,-84.8 357.23,-48.8 464.77,-48.8 464.77,-84.8"/>
<text text-anchor="middle" x="411" y="-62.6" font-family="Times,serif" font-size="14.00">UserComponent</text>
</g>
<!-- UserComponent&#45;&gt;AppModule -->
<g id="edge26" class="edge">
<title>UserComponent&#45;&gt;AppModule</title>
<path fill="none" stroke="black" d="M411,-84.81C411,-107.29 411,-142.8 411,-142.8 411,-142.8 2348,-142.8 2348,-142.8"/>
<polygon fill="black" stroke="black" points="2348,-146.3 2358,-142.8 2348,-139.3 2348,-146.3"/>
</g>
<!-- WelcomeComponent -->
<g id="node27" class="node">
<title>WelcomeComponent</title>
<polygon fill="#ffffb3" stroke="black" points="339.47,-84.8 204.53,-84.8 204.53,-48.8 339.47,-48.8 339.47,-84.8"/>
<text text-anchor="middle" x="272" y="-62.6" font-family="Times,serif" font-size="14.00">WelcomeComponent</text>
</g>
<!-- WelcomeComponent&#45;&gt;AppModule -->
<g id="edge27" class="edge">
<title>WelcomeComponent&#45;&gt;AppModule</title>
<path fill="none" stroke="black" d="M272,-85.12C272,-108.46 272,-145.8 272,-145.8 272,-145.8 2347.97,-145.8 2347.97,-145.8"/>
<polygon fill="black" stroke="black" points="2347.97,-149.3 2357.97,-145.8 2347.97,-142.3 2347.97,-149.3"/>
</g>
<!-- WorkoutToolsComponent -->
<g id="node28" class="node">
<title>WorkoutToolsComponent</title>
<polygon fill="#ffffb3" stroke="black" points="186.49,-84.8 23.51,-84.8 23.51,-48.8 186.49,-48.8 186.49,-84.8"/>
<text text-anchor="middle" x="105" y="-62.6" font-family="Times,serif" font-size="14.00">WorkoutToolsComponent</text>
</g>
<!-- WorkoutToolsComponent&#45;&gt;AppModule -->
<g id="edge28" class="edge">
<title>WorkoutToolsComponent&#45;&gt;AppModule</title>
<path fill="none" stroke="black" d="M105,-85.18C105,-109.08 105,-147.8 105,-147.8 105,-147.8 2348.21,-147.8 2348.21,-147.8"/>
<polygon fill="black" stroke="black" points="2348.21,-151.3 2358.21,-147.8 2348.21,-144.3 2348.21,-151.3"/>
</g>
<!-- AppComponent  -->
<g id="node32" class="node">
<title>AppComponent </title>
<polygon fill="#80b1d3" stroke="black" points="2454.44,-214.8 2345.56,-214.8 2345.56,-178.8 2454.44,-178.8 2454.44,-214.8"/>
<text text-anchor="middle" x="2400" y="-192.6" font-family="Times,serif" font-size="14.00">AppComponent </text>
</g>
<!-- AppModule&#45;&gt;AppComponent  -->
<g id="edge31" class="edge">
<title>AppModule&#45;&gt;AppComponent </title>
<path fill="none" stroke="black" stroke-dasharray="1,5" d="M2400,-149.91C2400,-149.91 2400,-168.79 2400,-168.79"/>
<polygon fill="black" stroke="black" points="2396.5,-168.79 2400,-178.79 2403.5,-168.79 2396.5,-168.79"/>
</g>
<!-- AppRoutingModule -->
<g id="node30" class="node">
<title>AppRoutingModule</title>
<polygon fill="#8dd3c7" stroke="black" points="4669.28,-84.8 4666.28,-88.8 4645.28,-88.8 4642.28,-84.8 4540.72,-84.8 4540.72,-48.8 4669.28,-48.8 4669.28,-84.8"/>
<text text-anchor="middle" x="4605" y="-62.6" font-family="Times,serif" font-size="14.00">AppRoutingModule</text>
</g>
<!-- AppRoutingModule&#45;&gt;AppModule -->
<g id="edge29" class="edge">
<title>AppRoutingModule&#45;&gt;AppModule</title>
<path fill="none" stroke="black" d="M4605,-85.18C4605,-109.08 4605,-147.8 4605,-147.8 4605,-147.8 2452.08,-147.8 2452.08,-147.8"/>
<polygon fill="black" stroke="black" points="2452.08,-144.3 2442.08,-147.8 2452.08,-151.3 2452.08,-144.3"/>
</g>
<!-- NgOptimizedImage -->
<g id="node31" class="node">
<title>NgOptimizedImage</title>
<polygon fill="#8dd3c7" stroke="black" points="4522.69,-84.8 4519.69,-88.8 4498.69,-88.8 4495.69,-84.8 4395.31,-84.8 4395.31,-48.8 4522.69,-48.8 4522.69,-84.8"/>
<text text-anchor="middle" x="4459" y="-62.6" font-family="Times,serif" font-size="14.00">NgOptimizedImage</text>
</g>
<!-- NgOptimizedImage&#45;&gt;AppModule -->
<g id="edge30" class="edge">
<title>NgOptimizedImage&#45;&gt;AppModule</title>
<path fill="none" stroke="black" d="M4459,-85.12C4459,-108.46 4459,-145.8 4459,-145.8 4459,-145.8 2452.06,-145.8 2452.06,-145.8"/>
<polygon fill="black" stroke="black" points="2452.06,-142.3 2442.06,-145.8 2452.06,-149.3 2452.06,-142.3"/>
</g>
</g>
</svg>
