<?xml version="1.0" encoding="UTF-8" standalone="no"?>
<!DOCTYPE svg PUBLIC "-//W3C//DTD SVG 1.1//EN"
 "http://www.w3.org/Graphics/SVG/1.1/DTD/svg11.dtd">
<!-- Generated by graphviz version 5.0.0 (20220707.1540)
 -->
<!-- Title: dependencies Pages: 1 -->
<svg width="3467pt" height="247pt"
 viewBox="0.00 0.00 3467.00 246.80" xmlns="http://www.w3.org/2000/svg" xmlns:xlink="http://www.w3.org/1999/xlink">
<g id="graph0" class="graph" transform="scale(1 1) rotate(0) translate(4 242.8)">
<title>dependencies</title>
<polygon fill="white" stroke="transparent" points="-4,4 -4,-242.8 3463,-242.8 3463,4 -4,4"/>
<text text-anchor="middle" x="1729.5" y="-8.2" font-family="sans-serif" font-size="14.00">dependencies</text>
<g id="clust1" class="cluster">
<title>cluster_AppModule</title>
<polygon fill="none" stroke="black" stroke-dasharray="1,5" points="8,-32.8 8,-230.8 3451,-230.8 3451,-32.8 8,-32.8"/>
</g>
<g id="clust24" class="cluster">
<title>cluster_AppModule_imports</title>
<polygon fill="none" stroke="black" points="3299,-40.8 3299,-92.8 3443,-92.8 3443,-40.8 3299,-40.8"/>
</g>
<g id="clust26" class="cluster">
<title>cluster_AppModule_bootstrap</title>
<polygon fill="none" stroke="black" points="1758,-170.8 1758,-222.8 1882,-222.8 1882,-170.8 1758,-170.8"/>
</g>
<g id="clust2" class="cluster">
<title>cluster_AppModule_declarations</title>
<polygon fill="none" stroke="black" points="16,-40.8 16,-92.8 3291,-92.8 3291,-40.8 16,-40.8"/>
</g>
<!-- AboutComponent -->
<g id="node1" class="node">
<title>AboutComponent</title>
<polygon fill="#ffffb3" stroke="black" points="3283.33,-84.8 3166.67,-84.8 3166.67,-48.8 3283.33,-48.8 3283.33,-84.8"/>
<text text-anchor="middle" x="3225" y="-62.6" font-family="Times,serif" font-size="14.00">AboutComponent</text>
</g>
<!-- AppModule -->
<g id="node22" class="node">
<title>AppModule</title>
<polygon fill="#8dd3c7" stroke="black" points="1861.66,-149.8 1858.66,-153.8 1837.66,-153.8 1834.66,-149.8 1778.34,-149.8 1778.34,-113.8 1861.66,-113.8 1861.66,-149.8"/>
<text text-anchor="middle" x="1820" y="-127.6" font-family="Times,serif" font-size="14.00">AppModule</text>
</g>
<!-- AboutComponent&#45;&gt;AppModule -->
<g id="edge1" class="edge">
<title>AboutComponent&#45;&gt;AppModule</title>
<path fill="none" stroke="black" d="M3225,-85.05C3225,-107.82 3225,-143.8 3225,-143.8 3225,-143.8 1871.67,-143.8 1871.67,-143.8"/>
<polygon fill="black" stroke="black" points="1871.67,-140.3 1861.67,-143.8 1871.67,-147.3 1871.67,-140.3"/>
</g>
<!-- AppComponent -->
<g id="node2" class="node">
<title>AppComponent</title>
<polygon fill="#ffffb3" stroke="black" points="3148.94,-84.8 3043.06,-84.8 3043.06,-48.8 3148.94,-48.8 3148.94,-84.8"/>
<text text-anchor="middle" x="3096" y="-62.6" font-family="Times,serif" font-size="14.00">AppComponent</text>
</g>
<!-- AppComponent&#45;&gt;AppModule -->
<g id="edge2" class="edge">
<title>AppComponent&#45;&gt;AppModule</title>
<path fill="none" stroke="black" d="M3096,-85.09C3096,-107.01 3096,-140.8 3096,-140.8 3096,-140.8 1871.73,-140.8 1871.73,-140.8"/>
<polygon fill="black" stroke="black" points="1871.73,-137.3 1861.73,-140.8 1871.73,-144.3 1871.73,-137.3"/>
</g>
<!-- BlindsHelpComponent -->
<g id="node3" class="node">
<title>BlindsHelpComponent</title>
<polygon fill="#ffffb3" stroke="black" points="3025.61,-84.8 2880.39,-84.8 2880.39,-48.8 3025.61,-48.8 3025.61,-84.8"/>
<text text-anchor="middle" x="2953" y="-62.6" font-family="Times,serif" font-size="14.00">BlindsHelpComponent</text>
</g>
<!-- BlindsHelpComponent&#45;&gt;AppModule -->
<g id="edge3" class="edge">
<title>BlindsHelpComponent&#45;&gt;AppModule</title>
<path fill="none" stroke="black" d="M2953,-84.83C2953,-105.57 2953,-136.8 2953,-136.8 2953,-136.8 1871.67,-136.8 1871.67,-136.8"/>
<polygon fill="black" stroke="black" points="1871.67,-133.3 1861.67,-136.8 1871.67,-140.3 1871.67,-133.3"/>
</g>
<!-- BookGymComponent -->
<g id="node4" class="node">
<title>BookGymComponent</title>
<polygon fill="#ffffb3" stroke="black" points="2862.67,-84.8 2723.33,-84.8 2723.33,-48.8 2862.67,-48.8 2862.67,-84.8"/>
<text text-anchor="middle" x="2793" y="-62.6" font-family="Times,serif" font-size="14.00">BookGymComponent</text>
</g>
<!-- BookGymComponent&#45;&gt;AppModule -->
<g id="edge4" class="edge">
<title>BookGymComponent&#45;&gt;AppModule</title>
<path fill="none" stroke="black" d="M2793,-85.11C2793,-104.95 2793,-133.8 2793,-133.8 2793,-133.8 1871.81,-133.8 1871.81,-133.8"/>
<polygon fill="black" stroke="black" points="1871.81,-130.3 1861.81,-133.8 1871.81,-137.3 1871.81,-130.3"/>
</g>
<!-- ClimateHelpComponent -->
<g id="node5" class="node">
<title>ClimateHelpComponent</title>
<polygon fill="#ffffb3" stroke="black" points="2705.37,-84.8 2552.63,-84.8 2552.63,-48.8 2705.37,-48.8 2705.37,-84.8"/>
<text text-anchor="middle" x="2629" y="-62.6" font-family="Times,serif" font-size="14.00">ClimateHelpComponent</text>
</g>
<!-- ClimateHelpComponent&#45;&gt;AppModule -->
<g id="edge5" class="edge">
<title>ClimateHelpComponent&#45;&gt;AppModule</title>
<path fill="none" stroke="black" d="M2629,-84.97C2629,-103.89 2629,-130.8 2629,-130.8 2629,-130.8 1871.79,-130.8 1871.79,-130.8"/>
<polygon fill="black" stroke="black" points="1871.79,-127.3 1861.79,-130.8 1871.79,-134.3 1871.79,-127.3"/>
</g>
<!-- DoorHelpComponent -->
<g id="node6" class="node">
<title>DoorHelpComponent</title>
<polygon fill="#ffffb3" stroke="black" points="2534.82,-84.8 2397.18,-84.8 2397.18,-48.8 2534.82,-48.8 2534.82,-84.8"/>
<text text-anchor="middle" x="2466" y="-62.6" font-family="Times,serif" font-size="14.00">DoorHelpComponent</text>
</g>
<!-- DoorHelpComponent&#45;&gt;AppModule -->
<g id="edge6" class="edge">
<title>DoorHelpComponent&#45;&gt;AppModule</title>
<path fill="none" stroke="black" d="M2466,-85.1C2466,-103.07 2466,-127.8 2466,-127.8 2466,-127.8 1871.89,-127.8 1871.89,-127.8"/>
<polygon fill="black" stroke="black" points="1871.89,-124.3 1861.89,-127.8 1871.89,-131.3 1871.89,-124.3"/>
</g>
<!-- GymCardComponent -->
<g id="node7" class="node">
<title>GymCardComponent</title>
<polygon fill="#ffffb3" stroke="black" points="2379.05,-84.8 2242.95,-84.8 2242.95,-48.8 2379.05,-48.8 2379.05,-84.8"/>
<text text-anchor="middle" x="2311" y="-62.6" font-family="Times,serif" font-size="14.00">GymCardComponent</text>
</g>
<!-- GymCardComponent&#45;&gt;AppModule -->
<g id="edge7" class="edge">
<title>GymCardComponent&#45;&gt;AppModule</title>
<path fill="none" stroke="black" d="M2311,-84.84C2311,-101.53 2311,-123.8 2311,-123.8 2311,-123.8 1871.86,-123.8 1871.86,-123.8"/>
<polygon fill="black" stroke="black" points="1871.86,-120.3 1861.86,-123.8 1871.86,-127.3 1871.86,-120.3"/>
</g>
<!-- HelpComponent -->
<g id="node8" class="node">
<title>HelpComponent</title>
<polygon fill="#ffffb3" stroke="black" points="2224.05,-84.8 2115.95,-84.8 2115.95,-48.8 2224.05,-48.8 2224.05,-84.8"/>
<text text-anchor="middle" x="2170" y="-62.6" font-family="Times,serif" font-size="14.00">HelpComponent</text>
</g>
<!-- HelpComponent&#45;&gt;AppModule -->
<g id="edge8" class="edge">
<title>HelpComponent&#45;&gt;AppModule</title>
<path fill="none" stroke="black" d="M2170,-85.08C2170,-100.75 2170,-120.8 2170,-120.8 2170,-120.8 1871.87,-120.8 1871.87,-120.8"/>
<polygon fill="black" stroke="black" points="1871.87,-117.3 1861.87,-120.8 1871.87,-124.3 1871.87,-117.3"/>
</g>
<!-- HomeComponent -->
<g id="node9" class="node">
<title>HomeComponent</title>
<polygon fill="#ffffb3" stroke="black" points="2097.55,-84.8 1982.45,-84.8 1982.45,-48.8 2097.55,-48.8 2097.55,-84.8"/>
<text text-anchor="middle" x="2040" y="-62.6" font-family="Times,serif" font-size="14.00">HomeComponent</text>
</g>
<!-- HomeComponent&#45;&gt;AppModule -->
<g id="edge9" class="edge">
<title>HomeComponent&#45;&gt;AppModule</title>
<path fill="none" stroke="black" d="M2040,-84.92C2040,-99.58 2040,-117.8 2040,-117.8 2040,-117.8 1871.9,-117.8 1871.9,-117.8"/>
<polygon fill="black" stroke="black" points="1871.9,-114.3 1861.9,-117.8 1871.9,-121.3 1871.9,-114.3"/>
</g>
<!-- IconListComponent -->
<g id="node10" class="node">
<title>IconListComponent</title>
<polygon fill="#ffffb3" stroke="black" points="1963.99,-84.8 1836.01,-84.8 1836.01,-48.8 1963.99,-48.8 1963.99,-84.8"/>
<text text-anchor="middle" x="1900" y="-62.6" font-family="Times,serif" font-size="14.00">IconListComponent</text>
</g>
<!-- IconListComponent&#45;&gt;AppModule -->
<g id="edge10" class="edge">
<title>IconListComponent&#45;&gt;AppModule</title>
<path fill="none" stroke="black" d="M1848.92,-84.91C1848.92,-84.91 1848.92,-103.79 1848.92,-103.79"/>
<polygon fill="black" stroke="black" points="1845.42,-103.79 1848.92,-113.79 1852.42,-103.79 1845.42,-103.79"/>
</g>
<!-- IconListItemComponent -->
<g id="node11" class="node">
<title>IconListItemComponent</title>
<polygon fill="#ffffb3" stroke="black" points="1817.64,-84.8 1664.36,-84.8 1664.36,-48.8 1817.64,-48.8 1817.64,-84.8"/>
<text text-anchor="middle" x="1741" y="-62.6" font-family="Times,serif" font-size="14.00">IconListItemComponent</text>
</g>
<!-- IconListItemComponent&#45;&gt;AppModule -->
<g id="edge11" class="edge">
<title>IconListItemComponent&#45;&gt;AppModule</title>
<path fill="none" stroke="black" d="M1797.99,-84.91C1797.99,-84.91 1797.99,-103.79 1797.99,-103.79"/>
<polygon fill="black" stroke="black" points="1794.49,-103.79 1797.99,-113.79 1801.49,-103.79 1794.49,-103.79"/>
</g>
<!-- InfobannerComponent -->
<g id="node12" class="node">
<title>InfobannerComponent</title>
<polygon fill="#ffffb3" stroke="black" points="1646.25,-84.8 1503.75,-84.8 1503.75,-48.8 1646.25,-48.8 1646.25,-84.8"/>
<text text-anchor="middle" x="1575" y="-62.6" font-family="Times,serif" font-size="14.00">InfobannerComponent</text>
</g>
<!-- InfobannerComponent&#45;&gt;AppModule -->
<g id="edge12" class="edge">
<title>InfobannerComponent&#45;&gt;AppModule</title>
<path fill="none" stroke="black" d="M1575,-84.92C1575,-99.58 1575,-117.8 1575,-117.8 1575,-117.8 1768.16,-117.8 1768.16,-117.8"/>
<polygon fill="black" stroke="black" points="1768.16,-121.3 1778.16,-117.8 1768.16,-114.3 1768.16,-121.3"/>
</g>
<!-- LightsHelpComponent -->
<g id="node13" class="node">
<title>LightsHelpComponent</title>
<polygon fill="#ffffb3" stroke="black" points="1485.32,-84.8 1340.68,-84.8 1340.68,-48.8 1485.32,-48.8 1485.32,-84.8"/>
<text text-anchor="middle" x="1413" y="-62.6" font-family="Times,serif" font-size="14.00">LightsHelpComponent</text>
</g>
<!-- LightsHelpComponent&#45;&gt;AppModule -->
<g id="edge13" class="edge">
<title>LightsHelpComponent&#45;&gt;AppModule</title>
<path fill="none" stroke="black" d="M1413,-85.08C1413,-100.75 1413,-120.8 1413,-120.8 1413,-120.8 1767.98,-120.8 1767.98,-120.8"/>
<polygon fill="black" stroke="black" points="1767.98,-124.3 1777.98,-120.8 1767.98,-117.3 1767.98,-124.3"/>
</g>
<!-- MatAccordionResponsiveComponent -->
<g id="node14" class="node">
<title>MatAccordionResponsiveComponent</title>
<polygon fill="#ffffb3" stroke="black" points="1322.52,-84.8 1095.48,-84.8 1095.48,-48.8 1322.52,-48.8 1322.52,-84.8"/>
<text text-anchor="middle" x="1209" y="-62.6" font-family="Times,serif" font-size="14.00">MatAccordionResponsiveComponent</text>
</g>
<!-- MatAccordionResponsiveComponent&#45;&gt;AppModule -->
<g id="edge14" class="edge">
<title>MatAccordionResponsiveComponent&#45;&gt;AppModule</title>
<path fill="none" stroke="black" d="M1209,-84.84C1209,-101.53 1209,-123.8 1209,-123.8 1209,-123.8 1768,-123.8 1768,-123.8"/>
<polygon fill="black" stroke="black" points="1768,-127.3 1778,-123.8 1768,-120.3 1768,-127.3"/>
</g>
<!-- MatSqButtonComponent -->
<g id="node15" class="node">
<title>MatSqButtonComponent</title>
<polygon fill="#ffffb3" stroke="black" points="1077.29,-84.8 920.71,-84.8 920.71,-48.8 1077.29,-48.8 1077.29,-84.8"/>
<text text-anchor="middle" x="999" y="-62.6" font-family="Times,serif" font-size="14.00">MatSqButtonComponent</text>
</g>
<!-- MatSqButtonComponent&#45;&gt;AppModule -->
<g id="edge15" class="edge">
<title>MatSqButtonComponent&#45;&gt;AppModule</title>
<path fill="none" stroke="black" d="M999,-85.1C999,-103.07 999,-127.8 999,-127.8 999,-127.8 1768.16,-127.8 1768.16,-127.8"/>
<polygon fill="black" stroke="black" points="1768.16,-131.3 1778.16,-127.8 1768.16,-124.3 1768.16,-131.3"/>
</g>
<!-- PageNotFoundComponent -->
<g id="node16" class="node">
<title>PageNotFoundComponent</title>
<polygon fill="#ffffb3" stroke="black" points="902.83,-84.8 737.17,-84.8 737.17,-48.8 902.83,-48.8 902.83,-84.8"/>
<text text-anchor="middle" x="820" y="-62.6" font-family="Times,serif" font-size="14.00">PageNotFoundComponent</text>
</g>
<!-- PageNotFoundComponent&#45;&gt;AppModule -->
<g id="edge16" class="edge">
<title>PageNotFoundComponent&#45;&gt;AppModule</title>
<path fill="none" stroke="black" d="M820,-84.97C820,-103.89 820,-130.8 820,-130.8 820,-130.8 1768.3,-130.8 1768.3,-130.8"/>
<polygon fill="black" stroke="black" points="1768.3,-134.3 1778.3,-130.8 1768.3,-127.3 1768.3,-134.3"/>
</g>
<!-- RoomComponent -->
<g id="node17" class="node">
<title>RoomComponent</title>
<polygon fill="#ffffb3" stroke="black" points="719.56,-84.8 604.44,-84.8 604.44,-48.8 719.56,-48.8 719.56,-84.8"/>
<text text-anchor="middle" x="662" y="-62.6" font-family="Times,serif" font-size="14.00">RoomComponent</text>
</g>
<!-- RoomComponent&#45;&gt;AppModule -->
<g id="edge17" class="edge">
<title>RoomComponent&#45;&gt;AppModule</title>
<path fill="none" stroke="black" d="M662,-85.11C662,-104.95 662,-133.8 662,-133.8 662,-133.8 1768.1,-133.8 1768.1,-133.8"/>
<polygon fill="black" stroke="black" points="1768.1,-137.3 1778.1,-133.8 1768.1,-130.3 1768.1,-137.3"/>
</g>
<!-- TaskComponent -->
<g id="node18" class="node">
<title>TaskComponent</title>
<polygon fill="#ffffb3" stroke="black" points="586.05,-84.8 477.95,-84.8 477.95,-48.8 586.05,-48.8 586.05,-84.8"/>
<text text-anchor="middle" x="532" y="-62.6" font-family="Times,serif" font-size="14.00">TaskComponent</text>
</g>
<!-- TaskComponent&#45;&gt;AppModule -->
<g id="edge18" class="edge">
<title>TaskComponent&#45;&gt;AppModule</title>
<path fill="none" stroke="black" d="M532,-84.83C532,-105.57 532,-136.8 532,-136.8 532,-136.8 1768.24,-136.8 1768.24,-136.8"/>
<polygon fill="black" stroke="black" points="1768.24,-140.3 1778.24,-136.8 1768.24,-133.3 1768.24,-140.3"/>
</g>
<!-- TaskListComponent -->
<g id="node19" class="node">
<title>TaskListComponent</title>
<polygon fill="#ffffb3" stroke="black" points="460.32,-84.8 329.68,-84.8 329.68,-48.8 460.32,-48.8 460.32,-84.8"/>
<text text-anchor="middle" x="395" y="-62.6" font-family="Times,serif" font-size="14.00">TaskListComponent</text>
</g>
<!-- TaskListComponent&#45;&gt;AppModule -->
<g id="edge19" class="edge">
<title>TaskListComponent&#45;&gt;AppModule</title>
<path fill="none" stroke="black" d="M395,-85.09C395,-107.01 395,-140.8 395,-140.8 395,-140.8 1768.12,-140.8 1768.12,-140.8"/>
<polygon fill="black" stroke="black" points="1768.12,-144.3 1778.12,-140.8 1768.12,-137.3 1768.12,-144.3"/>
</g>
<!-- UserComponent -->
<g id="node20" class="node">
<title>UserComponent</title>
<polygon fill="#ffffb3" stroke="black" points="311.77,-84.8 204.23,-84.8 204.23,-48.8 311.77,-48.8 311.77,-84.8"/>
<text text-anchor="middle" x="258" y="-62.6" font-family="Times,serif" font-size="14.00">UserComponent</text>
</g>
<!-- UserComponent&#45;&gt;AppModule -->
<g id="edge20" class="edge">
<title>UserComponent&#45;&gt;AppModule</title>
<path fill="none" stroke="black" d="M258,-85.05C258,-107.82 258,-143.8 258,-143.8 258,-143.8 1768.22,-143.8 1768.22,-143.8"/>
<polygon fill="black" stroke="black" points="1768.22,-147.3 1778.22,-143.8 1768.22,-140.3 1768.22,-147.3"/>
</g>
<!-- WorkoutToolsComponent -->
<g id="node21" class="node">
<title>WorkoutToolsComponent</title>
<polygon fill="#ffffb3" stroke="black" points="186.49,-84.8 23.51,-84.8 23.51,-48.8 186.49,-48.8 186.49,-84.8"/>
<text text-anchor="middle" x="105" y="-62.6" font-family="Times,serif" font-size="14.00">WorkoutToolsComponent</text>
</g>
<!-- WorkoutToolsComponent&#45;&gt;AppModule -->
<g id="edge21" class="edge">
<title>WorkoutToolsComponent&#45;&gt;AppModule</title>
<path fill="none" stroke="black" d="M105,-84.95C105,-108.56 105,-146.8 105,-146.8 105,-146.8 1768.03,-146.8 1768.03,-146.8"/>
<polygon fill="black" stroke="black" points="1768.03,-150.3 1778.03,-146.8 1768.03,-143.3 1768.03,-150.3"/>
</g>
<!-- AppComponent  -->
<g id="node24" class="node">
<title>AppComponent </title>
<polygon fill="#80b1d3" stroke="black" points="1874.44,-214.8 1765.56,-214.8 1765.56,-178.8 1874.44,-178.8 1874.44,-214.8"/>
<text text-anchor="middle" x="1820" y="-192.6" font-family="Times,serif" font-size="14.00">AppComponent </text>
</g>
<!-- AppModule&#45;&gt;AppComponent  -->
<g id="edge23" class="edge">
<title>AppModule&#45;&gt;AppComponent </title>
<path fill="none" stroke="black" stroke-dasharray="1,5" d="M1820,-149.91C1820,-149.91 1820,-168.79 1820,-168.79"/>
<polygon fill="black" stroke="black" points="1816.5,-168.79 1820,-178.79 1823.5,-168.79 1816.5,-168.79"/>
</g>
<!-- AppRoutingModule -->
<g id="node23" class="node">
<title>AppRoutingModule</title>
<polygon fill="#8dd3c7" stroke="black" points="3435.28,-84.8 3432.28,-88.8 3411.28,-88.8 3408.28,-84.8 3306.72,-84.8 3306.72,-48.8 3435.28,-48.8 3435.28,-84.8"/>
<text text-anchor="middle" x="3371" y="-62.6" font-family="Times,serif" font-size="14.00">AppRoutingModule</text>
</g>
<!-- AppRoutingModule&#45;&gt;AppModule -->
<g id="edge22" class="edge">
<title>AppRoutingModule&#45;&gt;AppModule</title>
<path fill="none" stroke="black" d="M3371,-84.95C3371,-108.56 3371,-146.8 3371,-146.8 3371,-146.8 1871.89,-146.8 1871.89,-146.8"/>
<polygon fill="black" stroke="black" points="1871.89,-143.3 1861.89,-146.8 1871.89,-150.3 1871.89,-143.3"/>
</g>
</g>
</svg>
