<?xml version="1.0" encoding="UTF-8" standalone="no"?>
<!DOCTYPE svg PUBLIC "-//W3C//DTD SVG 1.1//EN"
 "http://www.w3.org/Graphics/SVG/1.1/DTD/svg11.dtd">
<!-- Generated by graphviz version 5.0.0 (20220707.1540)
 -->
<!-- Title: dependencies Pages: 1 -->
<svg width="4221pt" height="247pt"
 viewBox="0.00 0.00 4221.00 246.80" xmlns="http://www.w3.org/2000/svg" xmlns:xlink="http://www.w3.org/1999/xlink">
<g id="graph0" class="graph" transform="scale(1 1) rotate(0) translate(4 242.8)">
<title>dependencies</title>
<polygon fill="white" stroke="transparent" points="-4,4 -4,-242.8 4217,-242.8 4217,4 -4,4"/>
<text text-anchor="middle" x="2106.5" y="-8.2" font-family="sans-serif" font-size="14.00">dependencies</text>
<g id="clust1" class="cluster">
<title>cluster_AppModule</title>
<polygon fill="none" stroke="black" stroke-dasharray="1,5" points="8,-32.8 8,-230.8 4205,-230.8 4205,-32.8 8,-32.8"/>
</g>
<g id="clust30" class="cluster">
<title>cluster_AppModule_bootstrap</title>
<polygon fill="none" stroke="black" points="2121,-170.8 2121,-222.8 2245,-222.8 2245,-170.8 2121,-170.8"/>
</g>
<g id="clust28" class="cluster">
<title>cluster_AppModule_imports</title>
<polygon fill="none" stroke="black" points="3907,-40.8 3907,-92.8 4197,-92.8 4197,-40.8 3907,-40.8"/>
</g>
<g id="clust2" class="cluster">
<title>cluster_AppModule_declarations</title>
<polygon fill="none" stroke="black" points="16,-40.8 16,-92.8 3899,-92.8 3899,-40.8 16,-40.8"/>
</g>
<!-- AboutComponent -->
<g id="node1" class="node">
<title>AboutComponent</title>
<polygon fill="#ffffb3" stroke="black" points="3891.33,-84.8 3774.67,-84.8 3774.67,-48.8 3891.33,-48.8 3891.33,-84.8"/>
<text text-anchor="middle" x="3833" y="-62.6" font-family="Times,serif" font-size="14.00">AboutComponent</text>
</g>
<!-- AppModule -->
<g id="node26" class="node">
<title>AppModule</title>
<polygon fill="#8dd3c7" stroke="black" points="2224.66,-149.8 2221.66,-153.8 2200.66,-153.8 2197.66,-149.8 2141.34,-149.8 2141.34,-113.8 2224.66,-113.8 2224.66,-149.8"/>
<text text-anchor="middle" x="2183" y="-127.6" font-family="Times,serif" font-size="14.00">AppModule</text>
</g>
<!-- AboutComponent&#45;&gt;AppModule -->
<g id="edge1" class="edge">
<title>AboutComponent&#45;&gt;AppModule</title>
<path fill="none" stroke="black" d="M3833,-84.81C3833,-107.29 3833,-142.8 3833,-142.8 3833,-142.8 2235.03,-142.8 2235.03,-142.8"/>
<polygon fill="black" stroke="black" points="2235.03,-139.3 2225.03,-142.8 2235.03,-146.3 2235.03,-139.3"/>
</g>
<!-- AppComponent -->
<g id="node2" class="node">
<title>AppComponent</title>
<polygon fill="#ffffb3" stroke="black" points="3756.94,-84.8 3651.06,-84.8 3651.06,-48.8 3756.94,-48.8 3756.94,-84.8"/>
<text text-anchor="middle" x="3704" y="-62.6" font-family="Times,serif" font-size="14.00">AppComponent</text>
</g>
<!-- AppComponent&#45;&gt;AppModule -->
<g id="edge2" class="edge">
<title>AppComponent&#45;&gt;AppModule</title>
<path fill="none" stroke="black" d="M3704,-84.84C3704,-106.46 3704,-139.8 3704,-139.8 3704,-139.8 2234.87,-139.8 2234.87,-139.8"/>
<polygon fill="black" stroke="black" points="2234.87,-136.3 2224.87,-139.8 2234.87,-143.3 2234.87,-136.3"/>
</g>
<!-- BlindsHelpComponent -->
<g id="node3" class="node">
<title>BlindsHelpComponent</title>
<polygon fill="#ffffb3" stroke="black" points="3633.61,-84.8 3488.39,-84.8 3488.39,-48.8 3633.61,-48.8 3633.61,-84.8"/>
<text text-anchor="middle" x="3561" y="-62.6" font-family="Times,serif" font-size="14.00">BlindsHelpComponent</text>
</g>
<!-- BlindsHelpComponent&#45;&gt;AppModule -->
<g id="edge3" class="edge">
<title>BlindsHelpComponent&#45;&gt;AppModule</title>
<path fill="none" stroke="black" d="M3561,-85.08C3561,-106.12 3561,-137.8 3561,-137.8 3561,-137.8 2234.99,-137.8 2234.99,-137.8"/>
<polygon fill="black" stroke="black" points="2234.99,-134.3 2224.99,-137.8 2234.99,-141.3 2234.99,-134.3"/>
</g>
<!-- BookGymComponent -->
<g id="node4" class="node">
<title>BookGymComponent</title>
<polygon fill="#ffffb3" stroke="black" points="3470.67,-84.8 3331.33,-84.8 3331.33,-48.8 3470.67,-48.8 3470.67,-84.8"/>
<text text-anchor="middle" x="3401" y="-62.6" font-family="Times,serif" font-size="14.00">BookGymComponent</text>
</g>
<!-- BookGymComponent&#45;&gt;AppModule -->
<g id="edge4" class="edge">
<title>BookGymComponent&#45;&gt;AppModule</title>
<path fill="none" stroke="black" d="M3401,-85.02C3401,-105.17 3401,-134.8 3401,-134.8 3401,-134.8 2234.93,-134.8 2234.93,-134.8"/>
<polygon fill="black" stroke="black" points="2234.93,-131.3 2224.93,-134.8 2234.93,-138.3 2234.93,-131.3"/>
</g>
<!-- ClimateHelpComponent -->
<g id="node5" class="node">
<title>ClimateHelpComponent</title>
<polygon fill="#ffffb3" stroke="black" points="3313.37,-84.8 3160.63,-84.8 3160.63,-48.8 3313.37,-48.8 3313.37,-84.8"/>
<text text-anchor="middle" x="3237" y="-62.6" font-family="Times,serif" font-size="14.00">ClimateHelpComponent</text>
</g>
<!-- ClimateHelpComponent&#45;&gt;AppModule -->
<g id="edge5" class="edge">
<title>ClimateHelpComponent&#45;&gt;AppModule</title>
<path fill="none" stroke="black" d="M3237,-84.91C3237,-104.14 3237,-131.8 3237,-131.8 3237,-131.8 2234.97,-131.8 2234.97,-131.8"/>
<polygon fill="black" stroke="black" points="2234.97,-128.3 2224.97,-131.8 2234.97,-135.3 2234.97,-128.3"/>
</g>
<!-- DoorHelpComponent -->
<g id="node6" class="node">
<title>DoorHelpComponent</title>
<polygon fill="#ffffb3" stroke="black" points="3142.82,-84.8 3005.18,-84.8 3005.18,-48.8 3142.82,-48.8 3142.82,-84.8"/>
<text text-anchor="middle" x="3074" y="-62.6" font-family="Times,serif" font-size="14.00">DoorHelpComponent</text>
</g>
<!-- DoorHelpComponent&#45;&gt;AppModule -->
<g id="edge6" class="edge">
<title>DoorHelpComponent&#45;&gt;AppModule</title>
<path fill="none" stroke="black" d="M3074,-85.02C3074,-103.63 3074,-129.8 3074,-129.8 3074,-129.8 2234.78,-129.8 2234.78,-129.8"/>
<polygon fill="black" stroke="black" points="2234.78,-126.3 2224.78,-129.8 2234.78,-133.3 2234.78,-126.3"/>
</g>
<!-- GymCardComponent -->
<g id="node7" class="node">
<title>GymCardComponent</title>
<polygon fill="#ffffb3" stroke="black" points="2987.05,-84.8 2850.95,-84.8 2850.95,-48.8 2987.05,-48.8 2987.05,-84.8"/>
<text text-anchor="middle" x="2919" y="-62.6" font-family="Times,serif" font-size="14.00">GymCardComponent</text>
</g>
<!-- GymCardComponent&#45;&gt;AppModule -->
<g id="edge7" class="edge">
<title>GymCardComponent&#45;&gt;AppModule</title>
<path fill="none" stroke="black" d="M2919,-84.8C2919,-102.48 2919,-126.8 2919,-126.8 2919,-126.8 2234.68,-126.8 2234.68,-126.8"/>
<polygon fill="black" stroke="black" points="2234.68,-123.3 2224.68,-126.8 2234.68,-130.3 2234.68,-123.3"/>
</g>
<!-- HelpComponent -->
<g id="node8" class="node">
<title>HelpComponent</title>
<polygon fill="#ffffb3" stroke="black" points="2832.05,-84.8 2723.95,-84.8 2723.95,-48.8 2832.05,-48.8 2832.05,-84.8"/>
<text text-anchor="middle" x="2778" y="-62.6" font-family="Times,serif" font-size="14.00">HelpComponent</text>
</g>
<!-- HelpComponent&#45;&gt;AppModule -->
<g id="edge8" class="edge">
<title>HelpComponent&#45;&gt;AppModule</title>
<path fill="none" stroke="black" d="M2778,-84.83C2778,-101.86 2778,-124.8 2778,-124.8 2778,-124.8 2234.84,-124.8 2234.84,-124.8"/>
<polygon fill="black" stroke="black" points="2234.84,-121.3 2224.84,-124.8 2234.84,-128.3 2234.84,-121.3"/>
</g>
<!-- HomeComponent -->
<g id="node9" class="node">
<title>HomeComponent</title>
<polygon fill="#ffffb3" stroke="black" points="2705.55,-84.8 2590.45,-84.8 2590.45,-48.8 2705.55,-48.8 2705.55,-84.8"/>
<text text-anchor="middle" x="2648" y="-62.6" font-family="Times,serif" font-size="14.00">HomeComponent</text>
</g>
<!-- HomeComponent&#45;&gt;AppModule -->
<g id="edge9" class="edge">
<title>HomeComponent&#45;&gt;AppModule</title>
<path fill="none" stroke="black" d="M2648,-84.81C2648,-100.85 2648,-121.8 2648,-121.8 2648,-121.8 2234.67,-121.8 2234.67,-121.8"/>
<polygon fill="black" stroke="black" points="2234.67,-118.3 2224.67,-121.8 2234.67,-125.3 2234.67,-118.3"/>
</g>
<!-- IconListComponent -->
<g id="node10" class="node">
<title>IconListComponent</title>
<polygon fill="#ffffb3" stroke="black" points="2571.99,-84.8 2444.01,-84.8 2444.01,-48.8 2571.99,-48.8 2571.99,-84.8"/>
<text text-anchor="middle" x="2508" y="-62.6" font-family="Times,serif" font-size="14.00">IconListComponent</text>
</g>
<!-- IconListComponent&#45;&gt;AppModule -->
<g id="edge10" class="edge">
<title>IconListComponent&#45;&gt;AppModule</title>
<path fill="none" stroke="black" d="M2508,-85.04C2508,-100.37 2508,-119.8 2508,-119.8 2508,-119.8 2234.82,-119.8 2234.82,-119.8"/>
<polygon fill="black" stroke="black" points="2234.82,-116.3 2224.82,-119.8 2234.82,-123.3 2234.82,-116.3"/>
</g>
<!-- IconListItemComponent -->
<g id="node11" class="node">
<title>IconListItemComponent</title>
<polygon fill="#ffffb3" stroke="black" points="2425.64,-84.8 2272.36,-84.8 2272.36,-48.8 2425.64,-48.8 2425.64,-84.8"/>
<text text-anchor="middle" x="2349" y="-62.6" font-family="Times,serif" font-size="14.00">IconListItemComponent</text>
</g>
<!-- IconListItemComponent&#45;&gt;AppModule -->
<g id="edge11" class="edge">
<title>IconListItemComponent&#45;&gt;AppModule</title>
<path fill="none" stroke="black" d="M2349,-84.85C2349,-99.17 2349,-116.8 2349,-116.8 2349,-116.8 2234.89,-116.8 2234.89,-116.8"/>
<polygon fill="black" stroke="black" points="2234.89,-113.3 2224.89,-116.8 2234.89,-120.3 2234.89,-113.3"/>
</g>
<!-- InfobannerComponent -->
<g id="node12" class="node">
<title>InfobannerComponent</title>
<polygon fill="#ffffb3" stroke="black" points="2254.25,-84.8 2111.75,-84.8 2111.75,-48.8 2254.25,-48.8 2254.25,-84.8"/>
<text text-anchor="middle" x="2183" y="-62.6" font-family="Times,serif" font-size="14.00">InfobannerComponent</text>
</g>
<!-- InfobannerComponent&#45;&gt;AppModule -->
<g id="edge12" class="edge">
<title>InfobannerComponent&#45;&gt;AppModule</title>
<path fill="none" stroke="black" d="M2183,-84.91C2183,-84.91 2183,-103.79 2183,-103.79"/>
<polygon fill="black" stroke="black" points="2179.5,-103.79 2183,-113.79 2186.5,-103.79 2179.5,-103.79"/>
</g>
<!-- LightsHelpComponent -->
<g id="node13" class="node">
<title>LightsHelpComponent</title>
<polygon fill="#ffffb3" stroke="black" points="2093.32,-84.8 1948.68,-84.8 1948.68,-48.8 2093.32,-48.8 2093.32,-84.8"/>
<text text-anchor="middle" x="2021" y="-62.6" font-family="Times,serif" font-size="14.00">LightsHelpComponent</text>
</g>
<!-- LightsHelpComponent&#45;&gt;AppModule -->
<g id="edge13" class="edge">
<title>LightsHelpComponent&#45;&gt;AppModule</title>
<path fill="none" stroke="black" d="M2021,-84.85C2021,-99.17 2021,-116.8 2021,-116.8 2021,-116.8 2131.28,-116.8 2131.28,-116.8"/>
<polygon fill="black" stroke="black" points="2131.28,-120.3 2141.28,-116.8 2131.28,-113.3 2131.28,-120.3"/>
</g>
<!-- LoginComponent -->
<g id="node14" class="node">
<title>LoginComponent</title>
<polygon fill="#ffffb3" stroke="black" points="1930.27,-84.8 1815.73,-84.8 1815.73,-48.8 1930.27,-48.8 1930.27,-84.8"/>
<text text-anchor="middle" x="1873" y="-62.6" font-family="Times,serif" font-size="14.00">LoginComponent</text>
</g>
<!-- LoginComponent&#45;&gt;AppModule -->
<g id="edge14" class="edge">
<title>LoginComponent&#45;&gt;AppModule</title>
<path fill="none" stroke="black" d="M1873,-85.04C1873,-100.37 1873,-119.8 1873,-119.8 1873,-119.8 2131.19,-119.8 2131.19,-119.8"/>
<polygon fill="black" stroke="black" points="2131.19,-123.3 2141.19,-119.8 2131.19,-116.3 2131.19,-123.3"/>
</g>
<!-- MatAccordionResponsiveComponent -->
<g id="node15" class="node">
<title>MatAccordionResponsiveComponent</title>
<polygon fill="#ffffb3" stroke="black" points="1797.52,-84.8 1570.48,-84.8 1570.48,-48.8 1797.52,-48.8 1797.52,-84.8"/>
<text text-anchor="middle" x="1684" y="-62.6" font-family="Times,serif" font-size="14.00">MatAccordionResponsiveComponent</text>
</g>
<!-- MatAccordionResponsiveComponent&#45;&gt;AppModule -->
<g id="edge15" class="edge">
<title>MatAccordionResponsiveComponent&#45;&gt;AppModule</title>
<path fill="none" stroke="black" d="M1684,-84.81C1684,-100.85 1684,-121.8 1684,-121.8 1684,-121.8 2131.31,-121.8 2131.31,-121.8"/>
<polygon fill="black" stroke="black" points="2131.31,-125.3 2141.31,-121.8 2131.31,-118.3 2131.31,-125.3"/>
</g>
<!-- MatSqButtonComponent -->
<g id="node16" class="node">
<title>MatSqButtonComponent</title>
<polygon fill="#ffffb3" stroke="black" points="1552.29,-84.8 1395.71,-84.8 1395.71,-48.8 1552.29,-48.8 1552.29,-84.8"/>
<text text-anchor="middle" x="1474" y="-62.6" font-family="Times,serif" font-size="14.00">MatSqButtonComponent</text>
</g>
<!-- MatSqButtonComponent&#45;&gt;AppModule -->
<g id="edge16" class="edge">
<title>MatSqButtonComponent&#45;&gt;AppModule</title>
<path fill="none" stroke="black" d="M1474,-84.83C1474,-101.86 1474,-124.8 1474,-124.8 1474,-124.8 2131.3,-124.8 2131.3,-124.8"/>
<polygon fill="black" stroke="black" points="2131.3,-128.3 2141.3,-124.8 2131.3,-121.3 2131.3,-128.3"/>
</g>
<!-- MediacontrolComponent -->
<g id="node17" class="node">
<title>MediacontrolComponent</title>
<polygon fill="#ffffb3" stroke="black" points="1377.25,-84.8 1220.75,-84.8 1220.75,-48.8 1377.25,-48.8 1377.25,-84.8"/>
<text text-anchor="middle" x="1299" y="-62.6" font-family="Times,serif" font-size="14.00">MediacontrolComponent</text>
</g>
<!-- MediacontrolComponent&#45;&gt;AppModule -->
<g id="edge17" class="edge">
<title>MediacontrolComponent&#45;&gt;AppModule</title>
<path fill="none" stroke="black" d="M1299,-84.8C1299,-102.48 1299,-126.8 1299,-126.8 1299,-126.8 2131.25,-126.8 2131.25,-126.8"/>
<polygon fill="black" stroke="black" points="2131.25,-130.3 2141.25,-126.8 2131.25,-123.3 2131.25,-130.3"/>
</g>
<!-- PageNotFoundComponent -->
<g id="node18" class="node">
<title>PageNotFoundComponent</title>
<polygon fill="#ffffb3" stroke="black" points="1202.83,-84.8 1037.17,-84.8 1037.17,-48.8 1202.83,-48.8 1202.83,-84.8"/>
<text text-anchor="middle" x="1120" y="-62.6" font-family="Times,serif" font-size="14.00">PageNotFoundComponent</text>
</g>
<!-- PageNotFoundComponent&#45;&gt;AppModule -->
<g id="edge18" class="edge">
<title>PageNotFoundComponent&#45;&gt;AppModule</title>
<path fill="none" stroke="black" d="M1120,-85.02C1120,-103.63 1120,-129.8 1120,-129.8 1120,-129.8 2131.33,-129.8 2131.33,-129.8"/>
<polygon fill="black" stroke="black" points="2131.33,-133.3 2141.33,-129.8 2131.33,-126.3 2131.33,-133.3"/>
</g>
<!-- RegisterComponent -->
<g id="node19" class="node">
<title>RegisterComponent</title>
<polygon fill="#ffffb3" stroke="black" points="1018.99,-84.8 891.01,-84.8 891.01,-48.8 1018.99,-48.8 1018.99,-84.8"/>
<text text-anchor="middle" x="955" y="-62.6" font-family="Times,serif" font-size="14.00">RegisterComponent</text>
</g>
<!-- RegisterComponent&#45;&gt;AppModule -->
<g id="edge19" class="edge">
<title>RegisterComponent&#45;&gt;AppModule</title>
<path fill="none" stroke="black" d="M955,-84.91C955,-104.14 955,-131.8 955,-131.8 955,-131.8 2131.08,-131.8 2131.08,-131.8"/>
<polygon fill="black" stroke="black" points="2131.08,-135.3 2141.08,-131.8 2131.08,-128.3 2131.08,-135.3"/>
</g>
<!-- RoomComponent -->
<g id="node20" class="node">
<title>RoomComponent</title>
<polygon fill="#ffffb3" stroke="black" points="872.56,-84.8 757.44,-84.8 757.44,-48.8 872.56,-48.8 872.56,-84.8"/>
<text text-anchor="middle" x="815" y="-62.6" font-family="Times,serif" font-size="14.00">RoomComponent</text>
</g>
<!-- RoomComponent&#45;&gt;AppModule -->
<g id="edge20" class="edge">
<title>RoomComponent&#45;&gt;AppModule</title>
<path fill="none" stroke="black" d="M815,-85.02C815,-105.17 815,-134.8 815,-134.8 815,-134.8 2131.31,-134.8 2131.31,-134.8"/>
<polygon fill="black" stroke="black" points="2131.31,-138.3 2141.31,-134.8 2131.31,-131.3 2131.31,-138.3"/>
</g>
<!-- TaskComponent -->
<g id="node21" class="node">
<title>TaskComponent</title>
<polygon fill="#ffffb3" stroke="black" points="739.05,-84.8 630.95,-84.8 630.95,-48.8 739.05,-48.8 739.05,-84.8"/>
<text text-anchor="middle" x="685" y="-62.6" font-family="Times,serif" font-size="14.00">TaskComponent</text>
</g>
<!-- TaskComponent&#45;&gt;AppModule -->
<g id="edge21" class="edge">
<title>TaskComponent&#45;&gt;AppModule</title>
<path fill="none" stroke="black" d="M685,-85.08C685,-106.12 685,-137.8 685,-137.8 685,-137.8 2130.98,-137.8 2130.98,-137.8"/>
<polygon fill="black" stroke="black" points="2130.98,-141.3 2140.98,-137.8 2130.98,-134.3 2130.98,-141.3"/>
</g>
<!-- TaskListComponent -->
<g id="node22" class="node">
<title>TaskListComponent</title>
<polygon fill="#ffffb3" stroke="black" points="613.32,-84.8 482.68,-84.8 482.68,-48.8 613.32,-48.8 613.32,-84.8"/>
<text text-anchor="middle" x="548" y="-62.6" font-family="Times,serif" font-size="14.00">TaskListComponent</text>
</g>
<!-- TaskListComponent&#45;&gt;AppModule -->
<g id="edge22" class="edge">
<title>TaskListComponent&#45;&gt;AppModule</title>
<path fill="none" stroke="black" d="M548,-84.84C548,-106.46 548,-139.8 548,-139.8 548,-139.8 2130.94,-139.8 2130.94,-139.8"/>
<polygon fill="black" stroke="black" points="2130.94,-143.3 2140.94,-139.8 2130.94,-136.3 2130.94,-143.3"/>
</g>
<!-- UserComponent -->
<g id="node23" class="node">
<title>UserComponent</title>
<polygon fill="#ffffb3" stroke="black" points="464.77,-84.8 357.23,-84.8 357.23,-48.8 464.77,-48.8 464.77,-84.8"/>
<text text-anchor="middle" x="411" y="-62.6" font-family="Times,serif" font-size="14.00">UserComponent</text>
</g>
<!-- UserComponent&#45;&gt;AppModule -->
<g id="edge23" class="edge">
<title>UserComponent&#45;&gt;AppModule</title>
<path fill="none" stroke="black" d="M411,-84.81C411,-107.29 411,-142.8 411,-142.8 411,-142.8 2130.95,-142.8 2130.95,-142.8"/>
<polygon fill="black" stroke="black" points="2130.95,-146.3 2140.95,-142.8 2130.95,-139.3 2130.95,-146.3"/>
</g>
<!-- WelcomeComponent -->
<g id="node24" class="node">
<title>WelcomeComponent</title>
<polygon fill="#ffffb3" stroke="black" points="339.47,-84.8 204.53,-84.8 204.53,-48.8 339.47,-48.8 339.47,-84.8"/>
<text text-anchor="middle" x="272" y="-62.6" font-family="Times,serif" font-size="14.00">WelcomeComponent</text>
</g>
<!-- WelcomeComponent&#45;&gt;AppModule -->
<g id="edge24" class="edge">
<title>WelcomeComponent&#45;&gt;AppModule</title>
<path fill="none" stroke="black" d="M272,-84.89C272,-107.93 272,-144.8 272,-144.8 272,-144.8 2131.31,-144.8 2131.31,-144.8"/>
<polygon fill="black" stroke="black" points="2131.31,-148.3 2141.31,-144.8 2131.31,-141.3 2131.31,-148.3"/>
</g>
<!-- WorkoutToolsComponent -->
<g id="node25" class="node">
<title>WorkoutToolsComponent</title>
<polygon fill="#ffffb3" stroke="black" points="186.49,-84.8 23.51,-84.8 23.51,-48.8 186.49,-48.8 186.49,-84.8"/>
<text text-anchor="middle" x="105" y="-62.6" font-family="Times,serif" font-size="14.00">WorkoutToolsComponent</text>
</g>
<!-- WorkoutToolsComponent&#45;&gt;AppModule -->
<g id="edge25" class="edge">
<title>WorkoutToolsComponent&#45;&gt;AppModule</title>
<path fill="none" stroke="black" d="M105,-85.18C105,-109.08 105,-147.8 105,-147.8 105,-147.8 2131.02,-147.8 2131.02,-147.8"/>
<polygon fill="black" stroke="black" points="2131.02,-151.3 2141.02,-147.8 2131.02,-144.3 2131.02,-151.3"/>
</g>
<!-- AppComponent  -->
<g id="node29" class="node">
<title>AppComponent </title>
<polygon fill="#80b1d3" stroke="black" points="2237.44,-214.8 2128.56,-214.8 2128.56,-178.8 2237.44,-178.8 2237.44,-214.8"/>
<text text-anchor="middle" x="2183" y="-192.6" font-family="Times,serif" font-size="14.00">AppComponent </text>
</g>
<!-- AppModule&#45;&gt;AppComponent  -->
<g id="edge28" class="edge">
<title>AppModule&#45;&gt;AppComponent </title>
<path fill="none" stroke="black" stroke-dasharray="1,5" d="M2183,-149.91C2183,-149.91 2183,-168.79 2183,-168.79"/>
<polygon fill="black" stroke="black" points="2179.5,-168.79 2183,-178.79 2186.5,-168.79 2179.5,-168.79"/>
</g>
<!-- AppRoutingModule -->
<g id="node27" class="node">
<title>AppRoutingModule</title>
<polygon fill="#8dd3c7" stroke="black" points="4189.28,-84.8 4186.28,-88.8 4165.28,-88.8 4162.28,-84.8 4060.72,-84.8 4060.72,-48.8 4189.28,-48.8 4189.28,-84.8"/>
<text text-anchor="middle" x="4125" y="-62.6" font-family="Times,serif" font-size="14.00">AppRoutingModule</text>
</g>
<!-- AppRoutingModule&#45;&gt;AppModule -->
<g id="edge26" class="edge">
<title>AppRoutingModule&#45;&gt;AppModule</title>
<path fill="none" stroke="black" d="M4125,-85.18C4125,-109.08 4125,-147.8 4125,-147.8 4125,-147.8 2234.91,-147.8 2234.91,-147.8"/>
<polygon fill="black" stroke="black" points="2234.91,-144.3 2224.91,-147.8 2234.91,-151.3 2234.91,-144.3"/>
</g>
<!-- NgOptimizedImage -->
<g id="node28" class="node">
<title>NgOptimizedImage</title>
<polygon fill="#8dd3c7" stroke="black" points="4042.69,-84.8 4039.69,-88.8 4018.69,-88.8 4015.69,-84.8 3915.31,-84.8 3915.31,-48.8 4042.69,-48.8 4042.69,-84.8"/>
<text text-anchor="middle" x="3979" y="-62.6" font-family="Times,serif" font-size="14.00">NgOptimizedImage</text>
</g>
<!-- NgOptimizedImage&#45;&gt;AppModule -->
<g id="edge27" class="edge">
<title>NgOptimizedImage&#45;&gt;AppModule</title>
<path fill="none" stroke="black" d="M3979,-84.89C3979,-107.93 3979,-144.8 3979,-144.8 3979,-144.8 2234.75,-144.8 2234.75,-144.8"/>
<polygon fill="black" stroke="black" points="2234.75,-141.3 2224.75,-144.8 2234.75,-148.3 2234.75,-141.3"/>
</g>
</g>
</svg>
