<?xml version="1.0" encoding="UTF-8" standalone="no"?>
<!DOCTYPE svg PUBLIC "-//W3C//DTD SVG 1.1//EN"
 "http://www.w3.org/Graphics/SVG/1.1/DTD/svg11.dtd">
<!-- Generated by graphviz version 5.0.0 (20220707.1540)
 -->
<!-- Title: dependencies Pages: 1 -->
<svg width="4869pt" height="247pt"
 viewBox="0.00 0.00 4869.00 246.80" xmlns="http://www.w3.org/2000/svg" xmlns:xlink="http://www.w3.org/1999/xlink">
<g id="graph0" class="graph" transform="scale(1 1) rotate(0) translate(4 242.8)">
<title>dependencies</title>
<polygon fill="white" stroke="transparent" points="-4,4 -4,-242.8 4865,-242.8 4865,4 -4,4"/>
<text text-anchor="middle" x="2430.5" y="-8.2" font-family="sans-serif" font-size="14.00">dependencies</text>
<g id="clust1" class="cluster">
<title>cluster_AppModule</title>
<polygon fill="none" stroke="black" stroke-dasharray="1,5" points="8,-32.8 8,-230.8 4853,-230.8 4853,-32.8 8,-32.8"/>
</g>
<g id="clust32" class="cluster">
<title>cluster_AppModule_imports</title>
<polygon fill="none" stroke="black" points="4555,-40.8 4555,-92.8 4845,-92.8 4845,-40.8 4555,-40.8"/>
</g>
<g id="clust34" class="cluster">
<title>cluster_AppModule_bootstrap</title>
<polygon fill="none" stroke="black" points="2423,-170.8 2423,-222.8 2547,-222.8 2547,-170.8 2423,-170.8"/>
</g>
<g id="clust2" class="cluster">
<title>cluster_AppModule_declarations</title>
<polygon fill="none" stroke="black" points="16,-40.8 16,-92.8 4547,-92.8 4547,-40.8 16,-40.8"/>
</g>
<!-- AboutComponent -->
<g id="node1" class="node">
<title>AboutComponent</title>
<polygon fill="#ffffb3" stroke="black" points="4539.33,-84.8 4422.67,-84.8 4422.67,-48.8 4539.33,-48.8 4539.33,-84.8"/>
<text text-anchor="middle" x="4481" y="-62.6" font-family="Times,serif" font-size="14.00">AboutComponent</text>
</g>
<!-- AppModule -->
<g id="node30" class="node">
<title>AppModule</title>
<polygon fill="#8dd3c7" stroke="black" points="2526.66,-149.8 2523.66,-153.8 2502.66,-153.8 2499.66,-149.8 2443.34,-149.8 2443.34,-113.8 2526.66,-113.8 2526.66,-149.8"/>
<text text-anchor="middle" x="2485" y="-127.6" font-family="Times,serif" font-size="14.00">AppModule</text>
</g>
<!-- AboutComponent&#45;&gt;AppModule -->
<g id="edge1" class="edge">
<title>AboutComponent&#45;&gt;AppModule</title>
<path fill="none" stroke="black" d="M4481,-85.05C4481,-107.82 4481,-143.8 4481,-143.8 4481,-143.8 2536.69,-143.8 2536.69,-143.8"/>
<polygon fill="black" stroke="black" points="2536.69,-140.3 2526.69,-143.8 2536.69,-147.3 2536.69,-140.3"/>
</g>
<!-- AppComponent -->
<g id="node2" class="node">
<title>AppComponent</title>
<polygon fill="#ffffb3" stroke="black" points="4404.94,-84.8 4299.06,-84.8 4299.06,-48.8 4404.94,-48.8 4404.94,-84.8"/>
<text text-anchor="middle" x="4352" y="-62.6" font-family="Times,serif" font-size="14.00">AppComponent</text>
</g>
<!-- AppComponent&#45;&gt;AppModule -->
<g id="edge2" class="edge">
<title>AppComponent&#45;&gt;AppModule</title>
<path fill="none" stroke="black" d="M4352,-85.09C4352,-107.01 4352,-140.8 4352,-140.8 4352,-140.8 2537.06,-140.8 2537.06,-140.8"/>
<polygon fill="black" stroke="black" points="2537.06,-137.3 2527.06,-140.8 2537.06,-144.3 2537.06,-137.3"/>
</g>
<!-- BlindsHelpComponent -->
<g id="node3" class="node">
<title>BlindsHelpComponent</title>
<polygon fill="#ffffb3" stroke="black" points="4281.61,-84.8 4136.39,-84.8 4136.39,-48.8 4281.61,-48.8 4281.61,-84.8"/>
<text text-anchor="middle" x="4209" y="-62.6" font-family="Times,serif" font-size="14.00">BlindsHelpComponent</text>
</g>
<!-- BlindsHelpComponent&#45;&gt;AppModule -->
<g id="edge3" class="edge">
<title>BlindsHelpComponent&#45;&gt;AppModule</title>
<path fill="none" stroke="black" d="M4209,-84.97C4209,-106.3 4209,-138.8 4209,-138.8 4209,-138.8 2536.76,-138.8 2536.76,-138.8"/>
<polygon fill="black" stroke="black" points="2536.76,-135.3 2526.76,-138.8 2536.76,-142.3 2536.76,-135.3"/>
</g>
<!-- BookGymComponent -->
<g id="node4" class="node">
<title>BookGymComponent</title>
<polygon fill="#ffffb3" stroke="black" points="4118.67,-84.8 3979.33,-84.8 3979.33,-48.8 4118.67,-48.8 4118.67,-84.8"/>
<text text-anchor="middle" x="4049" y="-62.6" font-family="Times,serif" font-size="14.00">BookGymComponent</text>
</g>
<!-- BookGymComponent&#45;&gt;AppModule -->
<g id="edge4" class="edge">
<title>BookGymComponent&#45;&gt;AppModule</title>
<path fill="none" stroke="black" d="M4049,-84.83C4049,-105.57 4049,-136.8 4049,-136.8 4049,-136.8 2536.83,-136.8 2536.83,-136.8"/>
<polygon fill="black" stroke="black" points="2536.83,-133.3 2526.83,-136.8 2536.83,-140.3 2536.83,-133.3"/>
</g>
<!-- BookTrainerComponent -->
<g id="node5" class="node">
<title>BookTrainerComponent</title>
<polygon fill="#ffffb3" stroke="black" points="3961.36,-84.8 3808.64,-84.8 3808.64,-48.8 3961.36,-48.8 3961.36,-84.8"/>
<text text-anchor="middle" x="3885" y="-62.6" font-family="Times,serif" font-size="14.00">BookTrainerComponent</text>
</g>
<!-- BookTrainerComponent&#45;&gt;AppModule -->
<g id="edge5" class="edge">
<title>BookTrainerComponent&#45;&gt;AppModule</title>
<path fill="none" stroke="black" d="M3885,-85.02C3885,-105.17 3885,-134.8 3885,-134.8 3885,-134.8 2536.9,-134.8 2536.9,-134.8"/>
<polygon fill="black" stroke="black" points="2536.9,-131.3 2526.9,-134.8 2536.9,-138.3 2536.9,-131.3"/>
</g>
<!-- BookingCardComponent -->
<g id="node6" class="node">
<title>BookingCardComponent</title>
<polygon fill="#ffffb3" stroke="black" points="3790.27,-84.8 3633.73,-84.8 3633.73,-48.8 3790.27,-48.8 3790.27,-84.8"/>
<text text-anchor="middle" x="3712" y="-62.6" font-family="Times,serif" font-size="14.00">BookingCardComponent</text>
</g>
<!-- BookingCardComponent&#45;&gt;AppModule -->
<g id="edge6" class="edge">
<title>BookingCardComponent&#45;&gt;AppModule</title>
<path fill="none" stroke="black" d="M3712,-84.91C3712,-104.14 3712,-131.8 3712,-131.8 3712,-131.8 2536.88,-131.8 2536.88,-131.8"/>
<polygon fill="black" stroke="black" points="2536.88,-128.3 2526.88,-131.8 2536.88,-135.3 2536.88,-128.3"/>
</g>
<!-- ClimateHelpComponent -->
<g id="node7" class="node">
<title>ClimateHelpComponent</title>
<polygon fill="#ffffb3" stroke="black" points="3615.37,-84.8 3462.63,-84.8 3462.63,-48.8 3615.37,-48.8 3615.37,-84.8"/>
<text text-anchor="middle" x="3539" y="-62.6" font-family="Times,serif" font-size="14.00">ClimateHelpComponent</text>
</g>
<!-- ClimateHelpComponent&#45;&gt;AppModule -->
<g id="edge7" class="edge">
<title>ClimateHelpComponent&#45;&gt;AppModule</title>
<path fill="none" stroke="black" d="M3539,-85.02C3539,-103.63 3539,-129.8 3539,-129.8 3539,-129.8 2536.97,-129.8 2536.97,-129.8"/>
<polygon fill="black" stroke="black" points="2536.97,-126.3 2526.97,-129.8 2536.97,-133.3 2536.97,-126.3"/>
</g>
<!-- DoorHelpComponent -->
<g id="node8" class="node">
<title>DoorHelpComponent</title>
<polygon fill="#ffffb3" stroke="black" points="3444.82,-84.8 3307.18,-84.8 3307.18,-48.8 3444.82,-48.8 3444.82,-84.8"/>
<text text-anchor="middle" x="3376" y="-62.6" font-family="Times,serif" font-size="14.00">DoorHelpComponent</text>
</g>
<!-- DoorHelpComponent&#45;&gt;AppModule -->
<g id="edge8" class="edge">
<title>DoorHelpComponent&#45;&gt;AppModule</title>
<path fill="none" stroke="black" d="M3376,-85.1C3376,-103.07 3376,-127.8 3376,-127.8 3376,-127.8 2536.78,-127.8 2536.78,-127.8"/>
<polygon fill="black" stroke="black" points="2536.78,-124.3 2526.78,-127.8 2536.78,-131.3 2536.78,-124.3"/>
</g>
<!-- GymCardComponent -->
<g id="node9" class="node">
<title>GymCardComponent</title>
<polygon fill="#ffffb3" stroke="black" points="3289.05,-84.8 3152.95,-84.8 3152.95,-48.8 3289.05,-48.8 3289.05,-84.8"/>
<text text-anchor="middle" x="3221" y="-62.6" font-family="Times,serif" font-size="14.00">GymCardComponent</text>
</g>
<!-- GymCardComponent&#45;&gt;AppModule -->
<g id="edge9" class="edge">
<title>GymCardComponent&#45;&gt;AppModule</title>
<path fill="none" stroke="black" d="M3221,-84.82C3221,-102.17 3221,-125.8 3221,-125.8 3221,-125.8 2536.68,-125.8 2536.68,-125.8"/>
<polygon fill="black" stroke="black" points="2536.68,-122.3 2526.68,-125.8 2536.68,-129.3 2536.68,-122.3"/>
</g>
<!-- HelpComponent -->
<g id="node10" class="node">
<title>HelpComponent</title>
<polygon fill="#ffffb3" stroke="black" points="3134.05,-84.8 3025.95,-84.8 3025.95,-48.8 3134.05,-48.8 3134.05,-84.8"/>
<text text-anchor="middle" x="3080" y="-62.6" font-family="Times,serif" font-size="14.00">HelpComponent</text>
</g>
<!-- HelpComponent&#45;&gt;AppModule -->
<g id="edge10" class="edge">
<title>HelpComponent&#45;&gt;AppModule</title>
<path fill="none" stroke="black" d="M3080,-84.83C3080,-101.2 3080,-122.8 3080,-122.8 3080,-122.8 2536.84,-122.8 2536.84,-122.8"/>
<polygon fill="black" stroke="black" points="2536.84,-119.3 2526.84,-122.8 2536.84,-126.3 2536.84,-119.3"/>
</g>
<!-- HomeComponent -->
<g id="node11" class="node">
<title>HomeComponent</title>
<polygon fill="#ffffb3" stroke="black" points="3007.55,-84.8 2892.45,-84.8 2892.45,-48.8 3007.55,-48.8 3007.55,-84.8"/>
<text text-anchor="middle" x="2950" y="-62.6" font-family="Times,serif" font-size="14.00">HomeComponent</text>
</g>
<!-- HomeComponent&#45;&gt;AppModule -->
<g id="edge11" class="edge">
<title>HomeComponent&#45;&gt;AppModule</title>
<path fill="none" stroke="black" d="M2950,-85.08C2950,-100.75 2950,-120.8 2950,-120.8 2950,-120.8 2536.67,-120.8 2536.67,-120.8"/>
<polygon fill="black" stroke="black" points="2536.67,-117.3 2526.67,-120.8 2536.67,-124.3 2536.67,-117.3"/>
</g>
<!-- IconListComponent -->
<g id="node12" class="node">
<title>IconListComponent</title>
<polygon fill="#ffffb3" stroke="black" points="2873.99,-84.8 2746.01,-84.8 2746.01,-48.8 2873.99,-48.8 2873.99,-84.8"/>
<text text-anchor="middle" x="2810" y="-62.6" font-family="Times,serif" font-size="14.00">IconListComponent</text>
</g>
<!-- IconListComponent&#45;&gt;AppModule -->
<g id="edge12" class="edge">
<title>IconListComponent&#45;&gt;AppModule</title>
<path fill="none" stroke="black" d="M2810,-84.99C2810,-99.98 2810,-118.8 2810,-118.8 2810,-118.8 2536.82,-118.8 2536.82,-118.8"/>
<polygon fill="black" stroke="black" points="2536.82,-115.3 2526.82,-118.8 2536.82,-122.3 2536.82,-115.3"/>
</g>
<!-- IconListItemComponent -->
<g id="node13" class="node">
<title>IconListItemComponent</title>
<polygon fill="#ffffb3" stroke="black" points="2727.64,-84.8 2574.36,-84.8 2574.36,-48.8 2727.64,-48.8 2727.64,-84.8"/>
<text text-anchor="middle" x="2651" y="-62.6" font-family="Times,serif" font-size="14.00">IconListItemComponent</text>
</g>
<!-- IconListItemComponent&#45;&gt;AppModule -->
<g id="edge13" class="edge">
<title>IconListItemComponent&#45;&gt;AppModule</title>
<path fill="none" stroke="black" d="M2651,-84.85C2651,-99.17 2651,-116.8 2651,-116.8 2651,-116.8 2536.89,-116.8 2536.89,-116.8"/>
<polygon fill="black" stroke="black" points="2536.89,-113.3 2526.89,-116.8 2536.89,-120.3 2536.89,-113.3"/>
</g>
<!-- InfobannerComponent -->
<g id="node14" class="node">
<title>InfobannerComponent</title>
<polygon fill="#ffffb3" stroke="black" points="2556.25,-84.8 2413.75,-84.8 2413.75,-48.8 2556.25,-48.8 2556.25,-84.8"/>
<text text-anchor="middle" x="2485" y="-62.6" font-family="Times,serif" font-size="14.00">InfobannerComponent</text>
</g>
<!-- InfobannerComponent&#45;&gt;AppModule -->
<g id="edge14" class="edge">
<title>InfobannerComponent&#45;&gt;AppModule</title>
<path fill="none" stroke="black" d="M2485,-84.91C2485,-84.91 2485,-103.79 2485,-103.79"/>
<polygon fill="black" stroke="black" points="2481.5,-103.79 2485,-113.79 2488.5,-103.79 2481.5,-103.79"/>
</g>
<!-- LightsHelpComponent -->
<g id="node15" class="node">
<title>LightsHelpComponent</title>
<polygon fill="#ffffb3" stroke="black" points="2395.32,-84.8 2250.68,-84.8 2250.68,-48.8 2395.32,-48.8 2395.32,-84.8"/>
<text text-anchor="middle" x="2323" y="-62.6" font-family="Times,serif" font-size="14.00">LightsHelpComponent</text>
</g>
<!-- LightsHelpComponent&#45;&gt;AppModule -->
<g id="edge15" class="edge">
<title>LightsHelpComponent&#45;&gt;AppModule</title>
<path fill="none" stroke="black" d="M2323,-84.85C2323,-99.17 2323,-116.8 2323,-116.8 2323,-116.8 2433.28,-116.8 2433.28,-116.8"/>
<polygon fill="black" stroke="black" points="2433.28,-120.3 2443.28,-116.8 2433.28,-113.3 2433.28,-120.3"/>
</g>
<!-- LoginComponent -->
<g id="node16" class="node">
<title>LoginComponent</title>
<polygon fill="#ffffb3" stroke="black" points="2232.27,-84.8 2117.73,-84.8 2117.73,-48.8 2232.27,-48.8 2232.27,-84.8"/>
<text text-anchor="middle" x="2175" y="-62.6" font-family="Times,serif" font-size="14.00">LoginComponent</text>
</g>
<!-- LoginComponent&#45;&gt;AppModule -->
<g id="edge16" class="edge">
<title>LoginComponent&#45;&gt;AppModule</title>
<path fill="none" stroke="black" d="M2175,-84.99C2175,-99.98 2175,-118.8 2175,-118.8 2175,-118.8 2433.19,-118.8 2433.19,-118.8"/>
<polygon fill="black" stroke="black" points="2433.19,-122.3 2443.19,-118.8 2433.19,-115.3 2433.19,-122.3"/>
</g>
<!-- MatAccordionResponsiveComponent -->
<g id="node17" class="node">
<title>MatAccordionResponsiveComponent</title>
<polygon fill="#ffffb3" stroke="black" points="2099.52,-84.8 1872.48,-84.8 1872.48,-48.8 2099.52,-48.8 2099.52,-84.8"/>
<text text-anchor="middle" x="1986" y="-62.6" font-family="Times,serif" font-size="14.00">MatAccordionResponsiveComponent</text>
</g>
<!-- MatAccordionResponsiveComponent&#45;&gt;AppModule -->
<g id="edge17" class="edge">
<title>MatAccordionResponsiveComponent&#45;&gt;AppModule</title>
<path fill="none" stroke="black" d="M1986,-85.08C1986,-100.75 1986,-120.8 1986,-120.8 1986,-120.8 2433.31,-120.8 2433.31,-120.8"/>
<polygon fill="black" stroke="black" points="2433.31,-124.3 2443.31,-120.8 2433.31,-117.3 2433.31,-124.3"/>
</g>
<!-- MatSqButtonComponent -->
<g id="node18" class="node">
<title>MatSqButtonComponent</title>
<polygon fill="#ffffb3" stroke="black" points="1854.29,-84.8 1697.71,-84.8 1697.71,-48.8 1854.29,-48.8 1854.29,-84.8"/>
<text text-anchor="middle" x="1776" y="-62.6" font-family="Times,serif" font-size="14.00">MatSqButtonComponent</text>
</g>
<!-- MatSqButtonComponent&#45;&gt;AppModule -->
<g id="edge18" class="edge">
<title>MatSqButtonComponent&#45;&gt;AppModule</title>
<path fill="none" stroke="black" d="M1776,-84.83C1776,-101.2 1776,-122.8 1776,-122.8 1776,-122.8 2433.3,-122.8 2433.3,-122.8"/>
<polygon fill="black" stroke="black" points="2433.3,-126.3 2443.3,-122.8 2433.3,-119.3 2433.3,-126.3"/>
</g>
<!-- MediacontrolComponent -->
<g id="node19" class="node">
<title>MediacontrolComponent</title>
<polygon fill="#ffffb3" stroke="black" points="1679.25,-84.8 1522.75,-84.8 1522.75,-48.8 1679.25,-48.8 1679.25,-84.8"/>
<text text-anchor="middle" x="1601" y="-62.6" font-family="Times,serif" font-size="14.00">MediacontrolComponent</text>
</g>
<!-- MediacontrolComponent&#45;&gt;AppModule -->
<g id="edge19" class="edge">
<title>MediacontrolComponent&#45;&gt;AppModule</title>
<path fill="none" stroke="black" d="M1601,-84.82C1601,-102.17 1601,-125.8 1601,-125.8 1601,-125.8 2433.25,-125.8 2433.25,-125.8"/>
<polygon fill="black" stroke="black" points="2433.25,-129.3 2443.25,-125.8 2433.25,-122.3 2433.25,-129.3"/>
</g>
<!-- PageNotFoundComponent -->
<g id="node20" class="node">
<title>PageNotFoundComponent</title>
<polygon fill="#ffffb3" stroke="black" points="1504.83,-84.8 1339.17,-84.8 1339.17,-48.8 1504.83,-48.8 1504.83,-84.8"/>
<text text-anchor="middle" x="1422" y="-62.6" font-family="Times,serif" font-size="14.00">PageNotFoundComponent</text>
</g>
<!-- PageNotFoundComponent&#45;&gt;AppModule -->
<g id="edge20" class="edge">
<title>PageNotFoundComponent&#45;&gt;AppModule</title>
<path fill="none" stroke="black" d="M1422,-85.1C1422,-103.07 1422,-127.8 1422,-127.8 1422,-127.8 2433.33,-127.8 2433.33,-127.8"/>
<polygon fill="black" stroke="black" points="2433.33,-131.3 2443.33,-127.8 2433.33,-124.3 2433.33,-131.3"/>
</g>
<!-- RegisterComponent -->
<g id="node21" class="node">
<title>RegisterComponent</title>
<polygon fill="#ffffb3" stroke="black" points="1320.99,-84.8 1193.01,-84.8 1193.01,-48.8 1320.99,-48.8 1320.99,-84.8"/>
<text text-anchor="middle" x="1257" y="-62.6" font-family="Times,serif" font-size="14.00">RegisterComponent</text>
</g>
<!-- RegisterComponent&#45;&gt;AppModule -->
<g id="edge21" class="edge">
<title>RegisterComponent&#45;&gt;AppModule</title>
<path fill="none" stroke="black" d="M1257,-85.02C1257,-103.63 1257,-129.8 1257,-129.8 1257,-129.8 2433.08,-129.8 2433.08,-129.8"/>
<polygon fill="black" stroke="black" points="2433.08,-133.3 2443.08,-129.8 2433.08,-126.3 2433.08,-133.3"/>
</g>
<!-- RoomComponent -->
<g id="node22" class="node">
<title>RoomComponent</title>
<polygon fill="#ffffb3" stroke="black" points="1174.56,-84.8 1059.44,-84.8 1059.44,-48.8 1174.56,-48.8 1174.56,-84.8"/>
<text text-anchor="middle" x="1117" y="-62.6" font-family="Times,serif" font-size="14.00">RoomComponent</text>
</g>
<!-- RoomComponent&#45;&gt;AppModule -->
<g id="edge22" class="edge">
<title>RoomComponent&#45;&gt;AppModule</title>
<path fill="none" stroke="black" d="M1117,-84.91C1117,-104.14 1117,-131.8 1117,-131.8 1117,-131.8 2433.31,-131.8 2433.31,-131.8"/>
<polygon fill="black" stroke="black" points="2433.31,-135.3 2443.31,-131.8 2433.31,-128.3 2433.31,-135.3"/>
</g>
<!-- SocialComponent -->
<g id="node23" class="node">
<title>SocialComponent</title>
<polygon fill="#ffffb3" stroke="black" points="1041.32,-84.8 924.68,-84.8 924.68,-48.8 1041.32,-48.8 1041.32,-84.8"/>
<text text-anchor="middle" x="983" y="-62.6" font-family="Times,serif" font-size="14.00">SocialComponent</text>
</g>
<!-- SocialComponent&#45;&gt;AppModule -->
<g id="edge23" class="edge">
<title>SocialComponent&#45;&gt;AppModule</title>
<path fill="none" stroke="black" d="M983,-85.02C983,-105.17 983,-134.8 983,-134.8 983,-134.8 2433.26,-134.8 2433.26,-134.8"/>
<polygon fill="black" stroke="black" points="2433.26,-138.3 2443.26,-134.8 2433.26,-131.3 2433.26,-138.3"/>
</g>
<!-- TaskComponent -->
<g id="node24" class="node">
<title>TaskComponent</title>
<polygon fill="#ffffb3" stroke="black" points="907.05,-84.8 798.95,-84.8 798.95,-48.8 907.05,-48.8 907.05,-84.8"/>
<text text-anchor="middle" x="853" y="-62.6" font-family="Times,serif" font-size="14.00">TaskComponent</text>
</g>
<!-- TaskComponent&#45;&gt;AppModule -->
<g id="edge24" class="edge">
<title>TaskComponent&#45;&gt;AppModule</title>
<path fill="none" stroke="black" d="M853,-84.83C853,-105.57 853,-136.8 853,-136.8 853,-136.8 2433.02,-136.8 2433.02,-136.8"/>
<polygon fill="black" stroke="black" points="2433.02,-140.3 2443.02,-136.8 2433.02,-133.3 2433.02,-140.3"/>
</g>
<!-- TaskListComponent -->
<g id="node25" class="node">
<title>TaskListComponent</title>
<polygon fill="#ffffb3" stroke="black" points="781.32,-84.8 650.68,-84.8 650.68,-48.8 781.32,-48.8 781.32,-84.8"/>
<text text-anchor="middle" x="716" y="-62.6" font-family="Times,serif" font-size="14.00">TaskListComponent</text>
</g>
<!-- TaskListComponent&#45;&gt;AppModule -->
<g id="edge25" class="edge">
<title>TaskListComponent&#45;&gt;AppModule</title>
<path fill="none" stroke="black" d="M716,-84.97C716,-106.3 716,-138.8 716,-138.8 716,-138.8 2433.02,-138.8 2433.02,-138.8"/>
<polygon fill="black" stroke="black" points="2433.02,-142.3 2443.02,-138.8 2433.02,-135.3 2433.02,-142.3"/>
</g>
<!-- TrainerCardComponent -->
<g id="node26" class="node">
<title>TrainerCardComponent</title>
<polygon fill="#ffffb3" stroke="black" points="632.74,-84.8 483.26,-84.8 483.26,-48.8 632.74,-48.8 632.74,-84.8"/>
<text text-anchor="middle" x="558" y="-62.6" font-family="Times,serif" font-size="14.00">TrainerCardComponent</text>
</g>
<!-- TrainerCardComponent&#45;&gt;AppModule -->
<g id="edge26" class="edge">
<title>TrainerCardComponent&#45;&gt;AppModule</title>
<path fill="none" stroke="black" d="M558,-85.09C558,-107.01 558,-140.8 558,-140.8 558,-140.8 2432.96,-140.8 2432.96,-140.8"/>
<polygon fill="black" stroke="black" points="2432.96,-144.3 2442.96,-140.8 2432.96,-137.3 2432.96,-144.3"/>
</g>
<!-- UserComponent -->
<g id="node27" class="node">
<title>UserComponent</title>
<polygon fill="#ffffb3" stroke="black" points="464.77,-84.8 357.23,-84.8 357.23,-48.8 464.77,-48.8 464.77,-84.8"/>
<text text-anchor="middle" x="411" y="-62.6" font-family="Times,serif" font-size="14.00">UserComponent</text>
</g>
<!-- UserComponent&#45;&gt;AppModule -->
<g id="edge27" class="edge">
<title>UserComponent&#45;&gt;AppModule</title>
<path fill="none" stroke="black" d="M411,-85.05C411,-107.82 411,-143.8 411,-143.8 411,-143.8 2433.1,-143.8 2433.1,-143.8"/>
<polygon fill="black" stroke="black" points="2433.1,-147.3 2443.1,-143.8 2433.1,-140.3 2433.1,-147.3"/>
</g>
<!-- WelcomeComponent -->
<g id="node28" class="node">
<title>WelcomeComponent</title>
<polygon fill="#ffffb3" stroke="black" points="339.47,-84.8 204.53,-84.8 204.53,-48.8 339.47,-48.8 339.47,-84.8"/>
<text text-anchor="middle" x="272" y="-62.6" font-family="Times,serif" font-size="14.00">WelcomeComponent</text>
</g>
<!-- WelcomeComponent&#45;&gt;AppModule -->
<g id="edge28" class="edge">
<title>WelcomeComponent&#45;&gt;AppModule</title>
<path fill="none" stroke="black" d="M272,-85.12C272,-108.46 272,-145.8 272,-145.8 272,-145.8 2433.26,-145.8 2433.26,-145.8"/>
<polygon fill="black" stroke="black" points="2433.26,-149.3 2443.26,-145.8 2433.26,-142.3 2433.26,-149.3"/>
</g>
<!-- WorkoutToolsComponent -->
<g id="node29" class="node">
<title>WorkoutToolsComponent</title>
<polygon fill="#ffffb3" stroke="black" points="186.49,-84.8 23.51,-84.8 23.51,-48.8 186.49,-48.8 186.49,-84.8"/>
<text text-anchor="middle" x="105" y="-62.6" font-family="Times,serif" font-size="14.00">WorkoutToolsComponent</text>
</g>
<!-- WorkoutToolsComponent&#45;&gt;AppModule -->
<g id="edge29" class="edge">
<title>WorkoutToolsComponent&#45;&gt;AppModule</title>
<path fill="none" stroke="black" d="M105,-85.18C105,-109.08 105,-147.8 105,-147.8 105,-147.8 2433.19,-147.8 2433.19,-147.8"/>
<polygon fill="black" stroke="black" points="2433.19,-151.3 2443.19,-147.8 2433.19,-144.3 2433.19,-151.3"/>
</g>
<!-- AppComponent  -->
<g id="node33" class="node">
<title>AppComponent </title>
<polygon fill="#80b1d3" stroke="black" points="2539.44,-214.8 2430.56,-214.8 2430.56,-178.8 2539.44,-178.8 2539.44,-214.8"/>
<text text-anchor="middle" x="2485" y="-192.6" font-family="Times,serif" font-size="14.00">AppComponent </text>
</g>
<!-- AppModule&#45;&gt;AppComponent  -->
<g id="edge32" class="edge">
<title>AppModule&#45;&gt;AppComponent </title>
<path fill="none" stroke="black" stroke-dasharray="1,5" d="M2485,-149.91C2485,-149.91 2485,-168.79 2485,-168.79"/>
<polygon fill="black" stroke="black" points="2481.5,-168.79 2485,-178.79 2488.5,-168.79 2481.5,-168.79"/>
</g>
<!-- AppRoutingModule -->
<g id="node31" class="node">
<title>AppRoutingModule</title>
<polygon fill="#8dd3c7" stroke="black" points="4837.28,-84.8 4834.28,-88.8 4813.28,-88.8 4810.28,-84.8 4708.72,-84.8 4708.72,-48.8 4837.28,-48.8 4837.28,-84.8"/>
<text text-anchor="middle" x="4773" y="-62.6" font-family="Times,serif" font-size="14.00">AppRoutingModule</text>
</g>
<!-- AppRoutingModule&#45;&gt;AppModule -->
<g id="edge30" class="edge">
<title>AppRoutingModule&#45;&gt;AppModule</title>
<path fill="none" stroke="black" d="M4773,-85.18C4773,-109.08 4773,-147.8 4773,-147.8 4773,-147.8 2536.67,-147.8 2536.67,-147.8"/>
<polygon fill="black" stroke="black" points="2536.67,-144.3 2526.67,-147.8 2536.67,-151.3 2536.67,-144.3"/>
</g>
<!-- NgOptimizedImage -->
<g id="node32" class="node">
<title>NgOptimizedImage</title>
<polygon fill="#8dd3c7" stroke="black" points="4690.69,-84.8 4687.69,-88.8 4666.69,-88.8 4663.69,-84.8 4563.31,-84.8 4563.31,-48.8 4690.69,-48.8 4690.69,-84.8"/>
<text text-anchor="middle" x="4627" y="-62.6" font-family="Times,serif" font-size="14.00">NgOptimizedImage</text>
</g>
<!-- NgOptimizedImage&#45;&gt;AppModule -->
<g id="edge31" class="edge">
<title>NgOptimizedImage&#45;&gt;AppModule</title>
<path fill="none" stroke="black" d="M4627,-85.12C4627,-108.46 4627,-145.8 4627,-145.8 4627,-145.8 2536.83,-145.8 2536.83,-145.8"/>
<polygon fill="black" stroke="black" points="2536.83,-142.3 2526.83,-145.8 2536.83,-149.3 2536.83,-142.3"/>
</g>
</g>
</svg>
